<?xml version="1.0" standalone="no"?><!DOCTYPE svg PUBLIC "-//W3C//DTD SVG 1.1//EN" "http://www.w3.org/Graphics/SVG/1.1/DTD/svg11.dtd"><svg t="1565511313679" class="icon" viewBox="0 0 1024 1024" version="1.1" xmlns="http://www.w3.org/2000/svg" p-id="43414" xmlns:xlink="http://www.w3.org/1999/xlink" width="128" height="128"><defs><style type="text/css"></style></defs><path d="M762 76.4h-62c-34.2 0-62 27.7-62 62V882c0 34.2 27.7 62 62 62h62c34.2 0 62-27.7 62-62V138.4c0-34.3-27.7-62-62-62z m-433.7 0h-62c-34.2 0-62 27.7-62 62V882c0 34.2 27.7 62 62 62h62c34.2 0 62-27.7 62-62V138.4c-0.1-34.3-27.8-62-62-62z" p-id="43415" fill="#bdbdbd"></path></svg>