<?xml version="1.0" standalone="no"?><!DOCTYPE svg PUBLIC "-//W3C//DTD SVG 1.1//EN" "http://www.w3.org/Graphics/SVG/1.1/DTD/svg11.dtd"><svg t="1567403750614" class="icon" viewBox="0 0 1024 1024" version="1.1" xmlns="http://www.w3.org/2000/svg" p-id="27848" xmlns:xlink="http://www.w3.org/1999/xlink" width="128" height="128"><defs><style type="text/css"></style></defs><path d="M819.2 910.21824H204.8c-50.26304 0-91.01824-40.75008-91.01824-91.01824V204.82048c0-50.28864 40.7552-91.04384 91.01824-91.04384h614.4c50.26816 0 91.01824 40.7552 91.01824 91.04384V819.2c0 50.26816-40.75008 91.01824-91.01824 91.01824z m22.74816-682.66496a45.5168 45.5168 0 0 0-45.51168-45.51168H227.55328c-25.11872 0-45.51168 20.38272-45.51168 45.51168v568.8832c0 25.12896 20.38272 45.5424 45.51168 45.5424h568.8832c25.12896 0 45.51168-20.38784 45.51168-45.5424V227.55328z m-238.67904 173.39904l-57.1392-57.1136v335.80032l55.5008-55.5008a34.1504 34.1504 0 0 1 48.27136 48.29184l-105.76896 105.76384c-1.61792 3.41504-3.52768 6.77888-6.36928 9.6256-7.10144 7.08096-16.48128 10.10176-25.75872 9.67168-9.2672 0.4608-18.6624-2.59072-25.75872-9.69216-2.84672-2.85184-4.80256-6.14912-6.3488-9.57952l-105.78944-105.78944a34.14016 34.14016 0 0 1 48.26624-48.29184l55.5008 55.5008V343.83872L420.75136 400.95232c-13.33248 13.35808-34.95424 13.33248-48.29184 0s-13.33248-34.92864 0-48.26624l115.39456-115.36896a34.0992 34.0992 0 0 1 48.26624 0l115.38944 115.36896a34.11456 34.11456 0 0 1 0 48.26624 34.08896 34.08896 0 0 1-48.24064 0z" p-id="27849" fill="#bdbdbd"></path></svg>