<?xml version="1.0" standalone="no"?><!DOCTYPE svg PUBLIC "-//W3C//DTD SVG 1.1//EN" "http://www.w3.org/Graphics/SVG/1.1/DTD/svg11.dtd"><svg t="1567403702557" class="icon" viewBox="0 0 1024 1024" version="1.1" xmlns="http://www.w3.org/2000/svg" p-id="24347" xmlns:xlink="http://www.w3.org/1999/xlink" width="128" height="128"><defs><style type="text/css"></style></defs><path d="M113.78176 819.2V204.8c0-50.26304 40.75008-91.01824 91.01824-91.01824h614.37952c50.28864 0 91.03872 40.7552 91.03872 91.01824v614.4c0 50.26816-40.7552 91.01824-91.03872 91.01824H204.8c-50.26816 0-91.01824-40.75008-91.01824-91.01824z m682.66496 22.74816a45.5168 45.5168 0 0 0 45.51168-45.51168l0.00512-568.88832c0-25.11872-20.38272-45.51168-45.51168-45.51168H227.5584c-25.12384 0-45.5424 20.38272-45.5424 45.51168v568.88832c0 25.11872 20.38784 45.51168 45.5424 45.51168h568.88832z m-173.39904-238.67904l57.10848-57.1392H344.36096l55.5008 55.5008a34.14016 34.14016 0 0 1-48.29184 48.27136l-105.76384-105.76896c-3.41504-1.61792-6.77376-3.52768-9.6256-6.36928-7.08096-7.10144-10.10176-16.48128-9.67168-25.75872-0.4608-9.2672 2.59072-18.6624 9.69216-25.75872 2.85184-2.84672 6.14912-4.80256 9.57952-6.3488l105.78944-105.78944a34.13504 34.13504 0 1 1 48.29184 48.26624l-55.5008 55.5008h335.80032L623.0528 420.75136a34.12992 34.12992 0 0 1 0-48.29184 34.11968 34.11968 0 0 1 48.26624 0l115.36384 115.39456a34.0992 34.0992 0 0 1 0 48.26624l-115.36384 115.38944a34.11456 34.11456 0 0 1-48.26624 0 34.08896 34.08896 0 0 1-0.00512-48.24064z" p-id="24348" fill="#bdbdbd"></path></svg>