<?xml version="1.0" standalone="no"?><!DOCTYPE svg PUBLIC "-//W3C//DTD SVG 1.1//EN" "http://www.w3.org/Graphics/SVG/1.1/DTD/svg11.dtd"><svg t="1565449949125" class="icon" viewBox="0 0 1024 1024" version="1.1" xmlns="http://www.w3.org/2000/svg" p-id="37912" xmlns:xlink="http://www.w3.org/1999/xlink" width="128" height="128"><defs><style type="text/css"></style></defs><path d="M820.2 710.66H202.45a94.28 94.28 0 0 1-94.16-94.21V242.06a94.28 94.28 0 0 1 94.16-94.2H820.2a94.31 94.31 0 0 1 94.18 94.2v374.39a94.31 94.31 0 0 1-94.18 94.21zM202.45 209.31a32.78 32.78 0 0 0-32.76 32.75v374.39a32.78 32.78 0 0 0 32.76 32.76H820.2a32.79 32.79 0 0 0 32.8-32.76V242.06a32.79 32.79 0 0 0-32.77-32.75zM661.7 878.59H360.94a30.73 30.73 0 0 1 0-61.45H661.7a30.73 30.73 0 0 1 0 61.45z" fill="#bdbdbd" p-id="37913"></path><path d="M511.32 878.59a30.71 30.71 0 0 1-30.7-30.73V701.57a30.7 30.7 0 1 1 61.4 0v146.29a30.71 30.71 0 0 1-30.7 30.73zM301.08 531.33a30.72 30.72 0 0 1-25.25-48.16l98.38-142.7a30.71 30.71 0 1 1 50.56 34.88L326.39 518a30.7 30.7 0 0 1-25.31 13.33zM623.13 531.33a30.72 30.72 0 0 1-25.26-48.16l98.41-142.7a30.71 30.71 0 1 1 50.56 34.88L648.44 518a30.71 30.71 0 0 1-25.31 13.33zM425.44 584.52a30.42 30.42 0 0 1-17.44-5.44 30.72 30.72 0 0 1-7.85-42.72L571.9 287.28a30.71 30.71 0 1 1 50.56 34.87L450.75 571.24a30.69 30.69 0 0 1-25.31 13.28z" fill="#bdbdbd" p-id="37914"></path></svg>