<?xml version="1.0" standalone="no"?><!DOCTYPE svg PUBLIC "-//W3C//DTD SVG 1.1//EN" "http://www.w3.org/Graphics/SVG/1.1/DTD/svg11.dtd"><svg t="1605283163167" class="icon" viewBox="0 0 1024 1024" version="1.1" xmlns="http://www.w3.org/2000/svg" p-id="9455" width="256" height="256" xmlns:xlink="http://www.w3.org/1999/xlink"><defs><style type="text/css"></style></defs><path d="M512 512m-113.778 0a113.778 113.778 0 1 0 227.556 0 113.778 113.778 0 1 0-227.556 0Z" p-id="9456" fill="#bdbdbd"></path><path d="M512 853.333c188.513 0 341.333-152.82 341.333-341.333 0-188.513-152.82-341.333-341.333-341.333-188.513 0-341.333 152.82-341.333 341.333 0 188.513 152.82 341.333 341.333 341.333z m0-113.777c-125.675 0-227.556-101.88-227.556-227.556 0-125.675 101.88-227.556 227.556-227.556 125.675 0 227.556 101.88 227.556 227.556 0 125.675-101.88 227.556-227.556 227.556z" p-id="9457" fill="#bdbdbd"></path><path d="M455.111 0h113.778v227.556H455.111zM455.111 796.444h113.778V1024H455.111z" p-id="9458" fill="#bdbdbd"></path><path d="M1024 455.111H796.444V568.89H1024zM227.556 455.111H0V568.89h227.556z" p-id="9459" fill="#bdbdbd"></path></svg>