<?xml version="1.0" standalone="no"?><!DOCTYPE svg PUBLIC "-//W3C//DTD SVG 1.1//EN" "http://www.w3.org/Graphics/SVG/1.1/DTD/svg11.dtd"><svg t="1565540071935" class="icon" viewBox="0 0 1024 1024" version="1.1" xmlns="http://www.w3.org/2000/svg" p-id="208861" xmlns:xlink="http://www.w3.org/1999/xlink" width="128" height="128"><defs><style type="text/css"></style></defs><path d="M1008 393.6l-281.6-284.8c-22.4-22.4-57.6-22.4-80 0L16 739.2c-22.4 22.4-22.4 57.6 0 80l83.2 83.2c6.4 6.4 16 12.8 28.8 12.8h419.2c9.6 0 19.2-3.2 28.8-12.8l428.8-428.8c22.4-22.4 22.4-57.6 3.2-80z m-374.4 316.8l-102.4 102.4c-3.2 3.2-6.4 3.2-12.8 3.2H160c-3.2 0-9.6-3.2-12.8-3.2l-22.4-22.4c-6.4-6.4-6.4-16 0-22.4l281.6-281.6c6.4-6.4 16-6.4 22.4 0l204.8 204.8c6.4 3.2 6.4 12.8 0 19.2z" p-id="208862" fill="#bdbdbd"></path></svg>