<?xml version="1.0" standalone="no"?><!DOCTYPE svg PUBLIC "-//W3C//DTD SVG 1.1//EN" "http://www.w3.org/Graphics/SVG/1.1/DTD/svg11.dtd"><svg t="1565444384658" class="icon" viewBox="0 0 1024 1024" version="1.1" xmlns="http://www.w3.org/2000/svg" p-id="1998" xmlns:xlink="http://www.w3.org/1999/xlink" width="128" height="128"><defs><style type="text/css"></style></defs><path d="M587.846432 911.941831 438.801884 911.941831c-26.081005 0-47.497781-18.839067-49.202609-42.592051l-7.365758-47.860031c-26.583448-11.059893-51.424206-25.340131-74.189699-42.650379l-48.680722 19.48068-0.88209 0.291642c-20.007683 6.632047-40.098253 2.444679-53.746088-11.202133l-2.907213-2.907213-76.986395-134.732587-0.402159-0.812505c-10.017144-20.212344-6.417153-41.794895 9.631358-57.734936l1.096984-1.089821 42.741453-34.656311c-2.075265-15.171538-3.124154-30.225395-3.124154-44.942585 0-13.001105 0.845251-26.186406 2.569522-39.921221l-41.912575-31.970132-1.461281-1.463328c-16.531512-16.556071-24.38948-42.959418-11.260461-61.286832l75.457576-131.979894 2.915399-2.910283c21.051455-21.019733 42.835597-19.665899 57.402361-14.829753l1.076518 0.357134 44.818765 18.656919c22.765493-17.83725 47.603181-32.581046 74.173326-44.028772l7.339152-49.52495c1.950422-24.532743 26.863834-42.508139 49.234331-42.508139l149.000546 0c14.810311 0 29.451776 7.580652 38.2123 19.784602 6.376221 8.883321 9.075703 19.48375 7.844665 30.089295l5.884011 38.148855c29.170366 11.542894 56.419987 27.04496 81.353866 46.283116l42.482557-16.97051 0.86674-0.287549c20.00052-6.640234 40.071647-2.482541 53.694923 11.122315l2.919493 2.915399 77.275991 135.378294c10.203386 20.154016 6.692423 41.793872-9.389858 57.888432l-1.140986 1.143033-38.090527 30.840402c2.084475 15.20633 3.137457 30.30112 3.137457 45.072545 0 14.470573-0.99977 29.208229-2.977821 44.020586l41.176818 28.65462c11.335163 6.742565 18.644639 18.410302 20.201088 32.429597 1.109264 9.982352-0.802272 20.516266-5.382591 29.661553l-0.800225 1.49505-74.228585 129.812531c-5.466502 10.327206-15.20633 18.451234-26.90886 22.396079-11.570523 3.900843-24.077372 3.394307-34.597983-1.349741l-48.842405-19.542078c-22.181185 16.986883-46.353724 31.095205-72.196299 42.135656l-7.603165 49.250704C635.008568 894.001227 610.16167 911.941831 587.846432 911.941831zM448.825169 850.54346l129.002073 0 11.574616-74.968435 17.042141-6.222725c31.361265-11.449773 59.974953-28.178783 85.045955-49.721425l14.123672-12.134365 73.53069 29.41903 63.085804-110.326734L778.893606 582.511937l3.76986-19.597337c3.400446-17.679661 5.125741-35.303041 5.125741-52.380998 0-16.86204-1.704828-34.343179-5.066389-51.958372l-3.445472-18.051121 55.946196-45.298695-61.724807-108.074438-67.403133 26.926256-14.124695-12.19781c-27.51568-23.765263-58.851363-41.585117-93.13519-52.964282l-17.808598-5.91164-11.178597-72.479755L445.171965 170.523745l-11.131525 75.115791-17.10047 6.28924c-32.057113 11.789511-61.307298 29.208229-86.938048 51.77213l-14.387685 12.665461L244.420779 286.730397l-62.829977 109.893876 62.295811 47.518247-3.234671 18.396999c-3.00852 17.110703-4.470825 32.810267-4.470825 47.995107 0 16.801664 1.698688 34.240849 5.047969 51.834552l3.432169 18.027585-60.648288 49.177026 61.746296 108.060111 73.357751-29.355585 14.110369 12.036128c25.582655 21.823028 54.812373 38.639019 86.87972 49.983391l17.311271 6.122441L448.825169 850.54346zM512.007163 659.643642c-82.219583 0-149.110039-66.890456-149.110039-149.110039 0-82.219583 66.890456-149.110039 149.110039-149.110039 82.219583 0 149.110039 66.890456 149.110039 149.110039C661.116179 592.753185 594.225723 659.643642 512.007163 659.643642zM512.007163 422.821935c-48.364521 0-87.711667 39.347147-87.711667 87.711667 0 48.364521 39.347147 87.711667 87.711667 87.711667 48.364521 0 87.711667-39.347147 87.711667-87.711667C599.717807 462.169081 560.370661 422.821935 512.007163 422.821935z" p-id="1999" fill="#bdbdbd"></path></svg>