<?xml version="1.0" standalone="no"?><!DOCTYPE svg PUBLIC "-//W3C//DTD SVG 1.1//EN" "http://www.w3.org/Graphics/SVG/1.1/DTD/svg11.dtd"><svg t="1565494524218" class="icon" viewBox="0 0 1026 1024" version="1.1" xmlns="http://www.w3.org/2000/svg" p-id="33653" xmlns:xlink="http://www.w3.org/1999/xlink" width="128.25" height="128"><defs><style type="text/css"></style></defs><path d="M924.330667 34.133333a68.266667 68.266667 0 0 1 68.266666 68.266667v819.2a68.266667 68.266667 0 0 1-68.266666 68.266667h-819.2a68.266667 68.266667 0 0 1-68.266667-68.266667V102.4a68.266667 68.266667 0 0 1 68.266667-68.266667h819.2m0-34.133333h-819.2a102.4 102.4 0 0 0-102.4 102.4v819.2a102.4 102.4 0 0 0 102.4 102.4h819.2a102.4 102.4 0 0 0 102.4-102.4V102.4a102.4 102.4 0 0 0-102.4-102.4z" p-id="33654" fill="#bdbdbd"></path><path d="M661.162667 592.896l119.466666 37.888a267.946667 267.946667 0 0 1-91.477333 148.48 260.778667 260.778667 0 0 1-162.133333 48.469333 262.826667 262.826667 0 0 1-200.021334-82.944 318.122667 318.122667 0 0 1-78.165333-227.328A333.824 333.824 0 0 1 327.68 280.576a269.994667 269.994667 0 0 1 207.189333-84.309333A253.952 253.952 0 0 1 716.8 262.485333 240.981333 240.981333 0 0 1 779.264 375.466667l-122.197333 29.013333a126.293333 126.293333 0 0 0-128.682667-102.4 138.922667 138.922667 0 0 0-110.250667 48.810667Q375.466667 399.018667 375.466667 508.245333q0 115.712 41.642666 164.864a136.533333 136.533333 0 0 0 108.202667 49.152 123.562667 123.562667 0 0 0 84.650667-31.402666 181.589333 181.589333 0 0 0 51.2-97.962667z" p-id="33655" fill="#bdbdbd"></path></svg>