<?xml version="1.0" standalone="no"?><!DOCTYPE svg PUBLIC "-//W3C//DTD SVG 1.1//EN" "http://www.w3.org/Graphics/SVG/1.1/DTD/svg11.dtd"><svg t="1565511616129" class="icon" viewBox="0 0 1024 1024" version="1.1" xmlns="http://www.w3.org/2000/svg" p-id="50173" xmlns:xlink="http://www.w3.org/1999/xlink" width="128" height="128"><defs><style type="text/css"></style></defs><path d="M786.921739 715.686957c20.034783 20.034783 20.034783 51.2 0 71.234782-10.017391 10.017391-22.26087 14.469565-35.617391 14.469565-13.356522 0-25.6-4.452174-35.617391-14.469565L512 583.234783 308.313043 786.921739c-10.017391 10.017391-22.26087 14.469565-35.617391 14.469565s-25.6-4.452174-35.617391-14.469565c-20.034783-20.034783-20.034783-51.2 0-71.234782L440.765217 512 237.078261 308.313043c-20.034783-20.034783-20.034783-51.2 0-71.234782 20.034783-20.034783 51.2-20.034783 71.234782 0L512 440.765217l203.686957-203.686956c20.034783-20.034783 51.2-20.034783 71.234782 0 20.034783 20.034783 20.034783 51.2 0 71.234782L583.234783 512l203.686956 203.686957z" fill="#bdbdbd" p-id="50174"></path></svg>