<?xml version="1.0" standalone="no"?><!DOCTYPE svg PUBLIC "-//W3C//DTD SVG 1.1//EN" "http://www.w3.org/Graphics/SVG/1.1/DTD/svg11.dtd"><svg t="1571150558159" class="icon" viewBox="0 0 1024 1024" version="1.1" xmlns="http://www.w3.org/2000/svg" p-id="2906" xmlns:xlink="http://www.w3.org/1999/xlink" width="128" height="128"><defs><style type="text/css"></style></defs><path d="M1009.92 192a128 128 0 1 0-168.96 121.6 805.12 805.12 0 0 1 0 96c-12.8 112.64-44.8 152.96-72.96 166.4-46.72 24.32-128-9.6-232.96-98.56a567.68 567.68 0 0 0-174.72-109.44 173.44 173.44 0 0 0-138.24 5.12c-64 33.92-103.04 114.56-115.2 239.36a938.88 938.88 0 0 0-3.84 99.2 128 128 0 1 0 80.64 0 862.72 862.72 0 0 1 0-91.52C192 553.6 211.2 469.12 256 444.16s128 8.32 227.2 94.72a590.72 590.72 0 0 0 182.4 113.28 173.44 173.44 0 0 0 140.16-5.12c64-33.28 99.84-111.36 110.72-232.96a935.68 935.68 0 0 0 0-102.4A128 128 0 0 0 1009.92 192zM213.76 832a71.04 71.04 0 1 1-71.04-71.04A71.04 71.04 0 0 1 213.76 832zM952.32 192a71.04 71.04 0 1 1-71.04-71.04A71.04 71.04 0 0 1 952.32 192z" p-id="2907" fill="#bdbdbd"></path></svg>