<?xml version="1.0" standalone="no"?><!DOCTYPE svg PUBLIC "-//W3C//DTD SVG 1.1//EN" "http://www.w3.org/Graphics/SVG/1.1/DTD/svg11.dtd"><svg t="1565511943159" class="icon" viewBox="0 0 1226 1024" version="1.1" xmlns="http://www.w3.org/2000/svg" p-id="53514" xmlns:xlink="http://www.w3.org/1999/xlink" width="153.25" height="128"><defs><style type="text/css"></style></defs><path d="M223.632184 23.54023H121.624521c-15.693487 0-29.425287 13.731801-29.425287 29.425287v102.007663c0 15.693487 13.731801 29.425287 29.425287 29.425287h102.007663c15.693487 0 29.425287-13.731801 29.425287-29.425287V52.965517c0-15.693487-13.731801-29.425287-29.425287-29.425287zM1092.659004 190.283525h-102.007663c-15.693487 0-29.425287 13.731801-29.425287 29.425287v102.007663c0 15.693487 13.731801 29.425287 29.425287 29.425287h102.007663c15.693487 0 29.425287-13.731801 29.425287-29.425287v-102.007663c-3.923372-15.693487-13.731801-29.425287-29.425287-29.425287zM1092.659004 676.781609h-102.007663c-15.693487 0-29.425287 13.731801-29.425287 29.425288v102.007662c0 15.693487 13.731801 29.425287 29.425287 29.425288h102.007663c15.693487 0 29.425287-13.731801 29.425287-29.425288V706.206897c-3.923372-15.693487-13.731801-29.425287-29.425287-29.425288zM223.632184 827.831418H121.624521c-15.693487 0-29.425287 13.731801-29.425287 29.425287v102.007663c0 15.693487 13.731801 29.425287 29.425287 29.425287h102.007663c15.693487 0 29.425287-13.731801 29.425287-29.425287v-102.007663c0-15.693487-13.731801-29.425287-29.425287-29.425287zM204.015326 731.708812V282.482759c0-15.693487-13.731801-29.425287-29.425288-29.425288s-29.425287 13.731801-29.425287 29.425288v449.226053c0 15.693487 13.731801 29.425287 29.425287 29.425288 13.731801 0 29.425287-13.731801 29.425288-29.425288zM1069.118774 592.429119v-154.97318c0-15.693487-13.731801-29.425287-29.425287-29.425288s-29.425287 13.731801-29.425288 29.425288v154.97318c0 15.693487 13.731801 29.425287 29.425288 29.425287s29.425287-13.731801 29.425287-29.425287zM892.56705 223.632184L357.02682 98.084291c-15.693487-3.923372-31.386973 5.885057-35.310345 21.578544-3.923372 15.693487 5.885057 31.386973 21.578544 35.310345l533.578544 125.547893h5.885058c13.731801 0 25.501916-9.808429 29.425287-23.54023 5.885057-13.731801-5.885057-29.425287-19.616858-33.348659zM863.141762 755.249042l-533.578544 125.547893c-15.693487 3.923372-25.501916 19.616858-21.578544 35.310345 3.923372 13.731801 15.693487 23.54023 29.425288 23.54023h5.885057l533.578544-125.547893c15.693487-3.923372 25.501916-19.616858 21.578544-35.310345s-19.616858-27.463602-35.310345-23.54023z" fill="#bdbdbd" p-id="53515"></path></svg>