<?xml version="1.0" standalone="no"?><!DOCTYPE svg PUBLIC "-//W3C//DTD SVG 1.1//EN" "http://www.w3.org/Graphics/SVG/1.1/DTD/svg11.dtd"><svg t="1565449187416" class="icon" viewBox="0 0 1024 1024" version="1.1" xmlns="http://www.w3.org/2000/svg" p-id="23533" xmlns:xlink="http://www.w3.org/1999/xlink" width="128" height="128"><defs><style type="text/css"></style></defs><path d="M866.986667 273.066667c-95.573333-61.44-225.28-95.573333-354.986667-95.573334S259.413333 211.626667 157.013333 273.066667C54.613333 341.333333 0 423.253333 0 512 0 593.92 54.613333 682.666667 157.013333 750.933333c95.573333 61.44 225.28 95.573333 354.986667 95.573334s252.586667-34.133333 354.986667-95.573334c102.4-68.266667 157.013333-150.186667 157.013333-238.933333 0-88.746667-54.613333-170.666667-157.013333-238.933333z m-40.96 416.426666c-88.746667 54.613333-197.973333 88.746667-314.026667 88.746667-116.053333 0-232.106667-34.133333-314.026667-88.746667C116.053333 641.706667 68.266667 573.44 68.266667 512c0-61.44 47.786667-129.706667 129.706666-177.493333 88.746667-54.613333 197.973333-88.746667 314.026667-88.746667s232.106667 34.133333 314.026667 88.746667c81.92 47.786667 129.706667 116.053333 129.706666 177.493333 0 61.44-47.786667 129.706667-129.706666 177.493333z" fill="#bdbdbd" p-id="23534"></path><path d="M512 307.2c-109.226667 0-204.8 88.746667-204.8 204.8s88.746667 204.8 204.8 204.8 204.8-88.746667 204.8-204.8-95.573333-204.8-204.8-204.8z m0 341.333333c-75.093333 0-136.533333-61.44-136.533333-136.533333s61.44-136.533333 136.533333-136.533333 136.533333 61.44 136.533333 136.533333-61.44 136.533333-136.533333 136.533333z" fill="#bdbdbd" p-id="23535"></path><path d="M512 409.6C457.386667 409.6 409.6 457.386667 409.6 512c0 20.48 13.653333 34.133333 34.133333 34.133333s34.133333-13.653333 34.133334-34.133333 13.653333-34.133333 34.133333-34.133333 34.133333-13.653333 34.133333-34.133334-13.653333-34.133333-34.133333-34.133333z" fill="#bdbdbd" p-id="23536"></path></svg>