<?xml version="1.0" standalone="no"?><!DOCTYPE svg PUBLIC "-//W3C//DTD SVG 1.1//EN" "http://www.w3.org/Graphics/SVG/1.1/DTD/svg11.dtd"><svg t="1565490677005" class="icon" viewBox="0 0 1024 1024" version="1.1" xmlns="http://www.w3.org/2000/svg" p-id="56802" xmlns:xlink="http://www.w3.org/1999/xlink" width="128" height="128"><defs><style type="text/css"></style></defs><path d="M409.6 102.4c0 30.72-20.48 51.2-51.2 51.2H153.6v204.8c0 30.72-20.48 51.2-51.2 51.2s-51.2-20.48-51.2-51.2V153.6c0-56.32 46.08-102.4 102.4-102.4h204.8c30.72 0 51.2 20.48 51.2 51.2zM358.4 870.4H230.4l148.48-148.48c20.48-20.48 20.48-51.2 0-71.68-20.48-20.48-51.2-20.48-71.68 0l-153.6 153.6V665.6c0-30.72-20.48-51.2-51.2-51.2s-51.2 20.48-51.2 51.2v256c0 30.72 20.48 51.2 51.2 51.2h256c30.72 0 51.2-20.48 51.2-51.2s-20.48-51.2-51.2-51.2zM921.6 51.2h-256c-30.72 0-51.2 20.48-51.2 51.2s20.48 51.2 51.2 51.2h138.24l-148.48 148.48c-20.48 20.48-20.48 51.2 0 71.68 20.48 20.48 51.2 20.48 71.68 0L870.4 230.4V358.4c0 30.72 20.48 51.2 51.2 51.2s51.2-20.48 51.2-51.2V102.4c0-30.72-20.48-51.2-51.2-51.2z m0 563.2c-30.72 0-51.2 20.48-51.2 51.2v204.8h-204.8c-30.72 0-51.2 20.48-51.2 51.2s20.48 51.2 51.2 51.2h204.8c56.32 0 102.4-46.08 102.4-102.4v-204.8c0-30.72-20.48-51.2-51.2-51.2z" p-id="56803" fill="#bdbdbd"></path></svg>