<?xml version="1.0" standalone="no"?><!DOCTYPE svg PUBLIC "-//W3C//DTD SVG 1.1//EN" "http://www.w3.org/Graphics/SVG/1.1/DTD/svg11.dtd"><svg t="1565450349096" class="icon" viewBox="0 0 1024 1024" version="1.1" xmlns="http://www.w3.org/2000/svg" p-id="46039" xmlns:xlink="http://www.w3.org/1999/xlink" width="128" height="128"><defs><style type="text/css"></style></defs><path d="M842.931 211.63l-3.118 0.046-0.051 0.046a103.44 103.44 0 0 0-37.202 8.136v-48.502c0-57.17-46.51-103.68-103.68-103.68-17.47 0-34.473 4.368-49.69 12.703-16.742-36.664-53.545-60.703-94.31-60.703-40.806 0-77.609 24.033-94.316 60.693a103.055 103.055 0 0 0-49.684-12.693c-57.17 0-103.68 46.51-103.68 103.68v325.228l-50.196-87.004c-13.522-24.612-35.63-42.174-62.265-49.46a98.202 98.202 0 0 0-76.144 10.522c-46.92 28.14-64.81 91.674-39.9 141.588l0.465 0.948c8.587 17.525 43.136 87.777 127.243 255.902 45.619 91.203 95.846 156.493 149.278 194.074 43.054 30.295 73.575 31.831 79.253 31.831h240c42.537 0 82.089-13.809 117.575-41.052 32.953-25.34 61.46-61.824 84.752-108.442 45.368-90.752 69.355-215.997 69.355-362.189V315.31c-0.005-57.17-46.515-103.68-103.685-103.68zM482.93 515.041a31.713 31.713 0 0 0 31.677-31.682V123.36c0-22.23 18.089-40.32 40.325-40.32s40.32 18.09 40.32 40.32v360.003c0 17.47 14.208 31.682 31.683 31.682s31.682-14.213 31.682-31.682V171.36c0-22.23 18.084-40.32 40.32-40.32s40.32 18.09 40.32 40.32v360.003c0 17.47 14.208 31.682 31.683 31.682s31.682-14.208 31.682-31.682V315.36c0-22.23 18.084-40.32 40.32-40.32s40.32 18.09 40.32 40.32l-0.05 168.003c0 136.422-21.658 251.848-62.644 333.814-26.122 52.234-72.602 114.503-145.674 114.503h-239.16c-2.197-0.256-20.65-2.96-48.333-23.67-29.758-22.282-75.49-69.375-124.36-167.203-88.284-176.579-121.467-244.168-127.222-255.929l-0.64-1.566-0.24-0.236c-9.554-20.552-2.269-46.863 16.281-57.979a34.734 34.734 0 0 1 26.9-3.732c9.939 2.713 18.269 9.436 23.46 18.928l75.213 130.325c14.53 26.552 31.345 40.008 49.977 40.008 3.256 0 6.579-0.425 9.866-1.26 22.538-5.719 33.966-26.91 33.966-62.981V171.36c0-22.23 18.089-40.32 40.32-40.32s40.32 18.09 40.32 40.32v312.003a31.724 31.724 0 0 0 31.688 31.677z" p-id="46040" fill="#bdbdbd"></path></svg>