<?xml version="1.0" standalone="no"?><!DOCTYPE svg PUBLIC "-//W3C//DTD SVG 1.1//EN" "http://www.w3.org/Graphics/SVG/1.1/DTD/svg11.dtd"><svg t="1565512139250" class="icon" viewBox="0 0 1024 1024" version="1.1" xmlns="http://www.w3.org/2000/svg" p-id="68019" xmlns:xlink="http://www.w3.org/1999/xlink" width="128" height="128"><defs><style type="text/css"></style></defs><path d="M668.27 488.8L486.4 670.67c8.27 1.6 16.8 2.4 25.6 2.4 87.2 0 158.4-71.2 158.4-158.4 0-8.8-0.8-17.34-2.13-25.87zM492 438.93l73.07-73.07c-16.53-6.4-34.4-9.6-53.07-9.6-87.2 0-158.4 71.2-158.4 158.4 0 18.67 3.2 36.53 9.6 53.07l73.07-73.07c7.2-27.19 28.53-48.53 55.73-55.73z" p-id="68020" fill="#bdbdbd"></path><path d="M512 198.67c-271.2 0-500 194.13-500 316 0 67.73 70.67 157.6 180 224.27L250.93 680C153.87 625.33 92 552.8 92 514.67c0-66.4 186.13-236 420-236 43.47 0 85.33 5.87 124.53 15.73l64.53-64.53c-58.66-19.47-122.39-31.2-189.06-31.2zM853.07 304l-58.13 58.4C879.47 414.93 932 479.47 932 514.67c0 66.4-186.13 236-420 236-33.07 0-65.33-3.47-96-9.6l-66.67 66.67c51.2 14.4 105.87 22.93 162.67 22.93 271.2 0 500-194.13 500-316 0-63.2-61.6-146.14-158.93-210.67zM933.6 166.93L186.93 913.6c-7.73 7.73-18.13 11.73-28.27 11.73-10.13 0-20.53-4-28.27-11.73-15.73-15.73-15.73-40.8 0-56.53l97.6-97.6 60.27-60.27 94.13-94.13 220-220 77.6-77.6 62.4-62.4L877.07 110.4c7.73-7.73 18.13-11.73 28.27-11.73 10.13 0 20.53 4 28.27 11.73 15.72 15.73 15.72 40.8-0.01 56.53z" p-id="68021" fill="#bdbdbd"></path></svg>