<?xml version="1.0" standalone="no"?><!DOCTYPE svg PUBLIC "-//W3C//DTD SVG 1.1//EN" "http://www.w3.org/Graphics/SVG/1.1/DTD/svg11.dtd"><svg t="1565433545239" class="icon" viewBox="0 0 1024 1024" version="1.1" xmlns="http://www.w3.org/2000/svg" p-id="2001" width="128" height="128" xmlns:xlink="http://www.w3.org/1999/xlink"><defs><style type="text/css"></style></defs><path d="M508.708571 881.005714s1.097143 1.170286 3.145143 2.267429c2.048-1.170286 3.145143-2.267429 3.145143-2.267429h-6.290286z m359.862858-719.36h-402.285715l-18.285714-44.690285C436.297143 89.965714 405.796571 73.142857 382.683429 73.142857H155.428571C104.96 73.142857 73.142857 105.106286 73.142857 155.282286l1.316572 73.874285 0.219428 4.388572c-1.024 6.802286-1.536 13.897143-1.536 21.211428v608.548572C73.142857 914.651429 100.937143 950.857143 154.112 950.857143h715.776c49.225143 0 80.969143-38.765714 80.969143-88.941714v-608.548572c0-62.537143-33.060571-91.721143-82.285714-91.721143zM692.662857 633.051429c-55.222857 58.733714-110.445714 119.954286-169.179428 179.785142-7.168 7.314286-11.995429 6.582857-13.897143 5.851429-1.974857 0.877714-7.314286 1.828571-14.482286-5.851429-70.217143-76.214857-114.102857-124.489143-166.4-179.785142-21.284571-22.454857 18.139429-21.430857 22.454857-21.430858h98.011429V324.608c0-13.604571 9.801143-22.601143 22.674285-22.601143h78.336c11.702857 0 23.844571 11.117714 23.844572 21.284572v288.329142h97.572571c4.388571 0 42.422857-1.170286 21.065143 21.430858z" fill="#bdbdbd" p-id="2002"></path></svg>