<?xml version="1.0" standalone="no"?><!DOCTYPE svg PUBLIC "-//W3C//DTD SVG 1.1//EN" "http://www.w3.org/Graphics/SVG/1.1/DTD/svg11.dtd"><svg t="1566343424564" class="icon" viewBox="0 0 1024 1024" version="1.1" xmlns="http://www.w3.org/2000/svg" p-id="164474" xmlns:xlink="http://www.w3.org/1999/xlink" width="128" height="128"><defs><style type="text/css"></style></defs><path d="M514.2 63zM949.5 402.8c-34-145.3-181.9-293.2-327.2-327.2C586.9 67.3 550.6 63 514.2 63 231.5 63 10 324.8 78.8 619.2c34 145.3 181.9 293.2 327.2 327.2 35.4 8.3 71.7 12.6 108.1 12.6 282.7 0 504.2-261.8 435.4-556.2z m-69 193.5c-12.6 54.1-37 104.7-71.5 148.1-34.6 43.7-78.5 79.2-128.5 103.9-25.3 12.5-52 22.1-79.5 28.6-28.5 6.7-57.6 10-86.8 10-30.9-0.1-61.7-3.7-91.8-10.8-56.6-13.2-118.8-50.6-170.8-102.6S162.2 659.2 149 602.7c-14-60-14.4-119.5-1.1-177 12.6-54.1 37-104.7 71.5-148.1 34.6-43.7 78.5-79.2 128.5-103.9 25.3-12.5 52-22.1 79.5-28.6 28.5-6.7 57.6-10.1 86.8-10.1 30.9 0.1 61.7 3.7 91.7 10.8 56.6 13.2 118.8 50.7 170.8 102.7s89.4 114.3 102.7 170.8c14 60 14.4 119.5 1.1 177z" p-id="164475" fill="#bdbdbd"></path><path d="M518.7 313.6c22.1 0 40-17.9 40-40s-17.9-40-40-40-40 17.9-40 40 17.9 40 40 40zM632 701.6h-77.3v-302c0-19.9-16.1-36-36-36h-88c-19.9 0-36 16.1-36 36s16.1 36 36 36h52v266H404c-19.9 0-36 16.1-36 36s16.1 36 36 36h228c19.9 0 36-16.1 36-36s-16.1-36-36-36z" p-id="164476" fill="#bdbdbd"></path></svg>