<?xml version="1.0" standalone="no"?><!DOCTYPE svg PUBLIC "-//W3C//DTD SVG 1.1//EN" "http://www.w3.org/Graphics/SVG/1.1/DTD/svg11.dtd"><svg t="1567749934399" class="icon" viewBox="0 0 1024 1024" version="1.1" xmlns="http://www.w3.org/2000/svg" p-id="2948" xmlns:xlink="http://www.w3.org/1999/xlink" width="128" height="128"><defs><style type="text/css"></style></defs><path d="M682.666667 568.888889 68.266667 568.888889C28.444444 568.888889 0 585.955556 0 614.4l0 28.444444C0 665.6 28.444444 682.666667 68.266667 682.666667L682.666667 682.666667c39.822222 0 56.888889-11.377778 56.888889-39.822222l0-39.822222C739.555556 580.266667 722.488889 568.888889 682.666667 568.888889zM682.666667 796.444444 68.266667 796.444444C28.444444 796.444444 0 813.511111 0 841.955556l0 28.444444C0 893.155556 28.444444 910.222222 68.266667 910.222222L682.666667 910.222222c39.822222 0 56.888889-11.377778 56.888889-39.822222l0-39.822222C739.555556 807.822222 722.488889 796.444444 682.666667 796.444444zM0 170.666667l0 5.688889C0 176.355556 0 176.355556 0 170.666667 0 170.666667 0 170.666667 0 170.666667zM56.888889 227.555556l625.777778 0c39.822222 0 56.888889-22.755556 56.888889-56.888889s-17.066667-56.888889-56.888889-56.888889L56.888889 113.777778C22.755556 113.777778 0 142.222222 0 176.355556 0 210.488889 22.755556 227.555556 56.888889 227.555556zM950.044444 233.244444l-187.733333 119.466667c-28.444444 17.066667-28.444444 68.266667 0 85.333333l187.733333 119.466667c34.133333 22.755556 73.955556-5.688889 73.955556-45.511111L1024 278.755556C1024 238.933333 978.488889 216.177778 950.044444 233.244444z" p-id="2949" fill="#bdbdbd"></path></svg>