<?xml version="1.0" standalone="no"?><!DOCTYPE svg PUBLIC "-//W3C//DTD SVG 1.1//EN" "http://www.w3.org/Graphics/SVG/1.1/DTD/svg11.dtd"><svg t="1566285750922" class="icon" viewBox="0 0 1025 1024" version="1.1" xmlns="http://www.w3.org/2000/svg" p-id="161820" xmlns:xlink="http://www.w3.org/1999/xlink" width="128.125" height="128"><defs><style type="text/css"></style></defs><path d="M644.608 403.968h-262.144c-9.216 71.68-9.728 144.384-2.56 216.576h266.752c7.68-71.68 6.656-144.384-2.048-216.576z m-10.24 300.032h-241.664c20.992 108.032 61.952 210.944 120.832 304.128 58.368-93.184 99.328-196.096 120.832-304.128z m100.864-181.248c0 32.768-1.536 65.536-4.608 97.792h283.648c15.36-71.168 15.36-145.408 0.512-216.576h-286.208c4.096 39.424 6.656 78.848 6.656 118.784z m-47.104-307.2c10.752 34.816 19.968 69.632 27.136 105.472h273.92c-25.6-64.512-64.512-122.88-113.664-171.52-76.288-76.8-175.104-126.976-282.112-143.872 39.424 65.536 71.168 136.192 94.72 209.92z m-352.256 605.696c-11.776-38.4-20.992-77.312-28.16-117.248h-269.824l3.072 7.168c25.6 60.928 62.976 115.712 110.08 162.816 73.216 73.216 166.4 122.88 268.288 141.312-34.816-61.44-62.976-126.464-83.456-194.048z m382.976-117.248c-7.168 41.472-17.408 81.92-29.696 121.856-20.48 66.048-47.616 129.024-81.408 189.44 101.376-18.944 195.072-68.608 267.776-141.312 46.592-46.592 83.968-101.888 110.08-162.816l3.072-7.168h-269.824z m-427.52-181.248c0-39.936 2.048-79.36 6.656-118.784h-286.72c-7.68 35.328-11.264 71.168-11.264 107.52 0 36.864 4.096 73.728 11.776 109.056h284.16c-2.56-32.256-4.096-65.024-4.608-97.792z m19.968-201.728c22.016-111.616 63.488-218.112 121.856-315.904-107.008 16.896-206.336 67.072-282.624 143.872-46.592 46.592-83.968 101.888-110.08 162.816l-3.584 8.704c0.512 0.512 274.432 0.512 274.432 0.512z m318.464 0c-22.016-100.352-61.44-196.608-116.736-283.648-54.784 87.04-94.72 182.784-116.736 283.648h233.472z" fill="#bdbdbd" p-id="161821"></path></svg>