<?xml version="1.0" standalone="no"?><!DOCTYPE svg PUBLIC "-//W3C//DTD SVG 1.1//EN" "http://www.w3.org/Graphics/SVG/1.1/DTD/svg11.dtd"><svg t="1565512255296" class="icon" viewBox="0 0 1024 1024" version="1.1" xmlns="http://www.w3.org/2000/svg" p-id="70731" xmlns:xlink="http://www.w3.org/1999/xlink" width="128" height="128"><defs><style type="text/css"></style></defs><path d="M446.08 633.6c-12.24 0-24.4-4.64-33.76-14-87.36-87.36-87.36-229.52 0-316.88L588.64 126.4c42.32-42.32 98.56-65.6 158.4-65.6s116.08 23.28 158.4 65.6c87.36 87.36 87.36 229.52 0 316.88l-80.56 80.56a47.76 47.76 0 0 1-67.52-67.52l80.56-80.56c50.16-50.16 50.16-131.68 0-181.76a127.624 127.624 0 0 0-90.88-37.68c-34.32 0-66.64 13.36-90.88 37.68L479.84 370.32c-50.16 50.16-50.16 131.68 0 181.76a47.76 47.76 0 0 1 0 67.52 47.344 47.344 0 0 1-33.76 14z" fill="#bdbdbd" p-id="70732"></path><path d="M276.96 979.12c-59.84 0-116.08-23.28-158.4-65.6-87.36-87.36-87.36-229.52 0-316.88l80.56-80.56a47.76 47.76 0 0 1 67.52 67.52L186.08 664.16c-50.16 50.16-50.16 131.68 0 181.76 24.24 24.32 56.56 37.68 90.88 37.68 34.32 0 66.64-13.36 90.88-37.68L544.16 669.6c50.16-50.16 50.16-131.68 0-181.76a47.76 47.76 0 0 1 67.52-67.52c87.36 87.36 87.36 229.52 0 316.8l-176.32 176.32c-42.32 42.32-98.56 65.68-158.4 65.68z" fill="#bdbdbd" p-id="70733"></path></svg>