<?xml version="1.0" standalone="no"?><!DOCTYPE svg PUBLIC "-//W3C//DTD SVG 1.1//EN" "http://www.w3.org/Graphics/SVG/1.1/DTD/svg11.dtd"><svg t="1565448431550" class="icon" viewBox="0 0 1024 1024" version="1.1" xmlns="http://www.w3.org/2000/svg" p-id="9531" xmlns:xlink="http://www.w3.org/1999/xlink" width="128" height="128"><defs><style type="text/css"></style></defs><path d="M512 851.2c-185.6 0-339.2-153.6-339.2-339.2S326.4 172.8 512 172.8 851.2 326.4 851.2 512 697.6 851.2 512 851.2z m416-384c-19.2-192-179.2-352-371.2-371.2V0h-96v96c-192 19.2-352 179.2-371.2 371.2H0v96h96c19.2 192 179.2 352 371.2 371.2v89.6h96v-96c192-19.2 352-179.2 371.2-371.2h89.6v-96h-96zM512 320c-108.8 0-192 89.6-192 192 0 108.8 89.6 192 192 192 108.8 0 192-89.6 192-192 0-108.8-83.2-192-192-192z" p-id="9532" fill="#bdbdbd"></path></svg>