<?xml version="1.0" standalone="no"?><!DOCTYPE svg PUBLIC "-//W3C//DTD SVG 1.1//EN" "http://www.w3.org/Graphics/SVG/1.1/DTD/svg11.dtd"><svg t="1565449235595" class="icon" viewBox="0 0 1024 1024" version="1.1" xmlns="http://www.w3.org/2000/svg" p-id="24384" xmlns:xlink="http://www.w3.org/1999/xlink" width="128" height="128"><defs><style type="text/css"></style></defs><path d="M582.173 636.009c0-39.765-31.596-71.864-70.173-71.864s-70.173 32.1-70.173 71.864c0 26.918 14.071 49.768 35.122 61.968v81.905c0 19.864 15.763 36.274 35.087 36.274 19.324 0 35.086-16.41 35.086-36.274v-81.905c21.016-12.199 35.051-35.05 35.051-61.968z" p-id="24385" fill="#bdbdbd"></path><path d="M757.604 384h-30.407v-67.275C727.197 163.201 642.728 64 512 64s-215.198 99.201-215.198 252.726V384h-30.406c-57.865 0-105.259 48.581-105.259 108.174v359.644c0 59.629 47.43 108.174 105.259 108.174h491.208c57.865 0 105.259-48.545 105.259-108.174V492.174c0-59.593-47.394-108.174-105.259-108.174zM357.5 334.254h0.102v-17.528c0-30.25 4.135-74.377 23.835-112.805 25.6-49.937 70.748-76.331 130.563-76.331 98.122 0 154.398 68.938 154.398 189.136v17.528h0.101V384h-309v-49.746z m441.363 517.563c0 12.043-4.537 23.333-12.776 31.791-7.778 7.985-17.893 12.382-28.483 12.382H266.396c-10.579 0-20.692-4.399-28.475-12.388-8.244-8.461-12.784-19.75-12.784-31.786V492.174c0-12.032 4.539-23.32 12.781-31.783C245.698 452.4 255.812 448 266.396 448h491.208c10.583 0 20.697 4.4 28.478 12.391 8.242 8.463 12.781 19.751 12.781 31.783v359.643z" p-id="24386" fill="#bdbdbd"></path></svg>