<?xml version="1.0" standalone="no"?><!DOCTYPE svg PUBLIC "-//W3C//DTD SVG 1.1//EN" "http://www.w3.org/Graphics/SVG/1.1/DTD/svg11.dtd"><svg t="1566976312898" class="icon" viewBox="0 0 1024 1024" version="1.1" xmlns="http://www.w3.org/2000/svg" p-id="22467" xmlns:xlink="http://www.w3.org/1999/xlink" width="128" height="128"><defs><style type="text/css"></style></defs><path d="M514.63547095 64.50557607c-245.79772937 0-445.80505747 199.97978336-445.80505745 445.7795534 0 245.85077718 200.0073271 445.85810529 445.80505745 445.85810529 245.79875019 0 445.80505747-200.0073271 445.80505749-445.85810529C960.44052743 264.48535941 760.43422017 64.50557607 514.63547095 64.50557607zM572.44016637 798.25683382c-13.74446534 14.26678179-31.36753754 21.5057584-52.45401459 21.50575839-22.03113538 0-40.59886489-7.55216231-55.33899569-22.3453409-14.635056-14.79113893-22.03113538-32.5213256-22.03113537-52.66416523 0-19.46035985 6.87172326-35.87659514 20.50907311-48.78045812 17.93931743-17.04770793 36.61314256-25.70265117 55.39102367-25.70265118 20.40399732 0 38.08011732 7.3960794 52.55909039 21.92605961 14.58200819 14.47693239 21.92503973 32.31117502 21.92503974 53.08242667C593.00126648 766.25884451 586.0785361 784.14613494 572.44016637 798.25683382zM592.89721153 384.50077378l-26.12091168 136.06541617c-6.82071513 41.07119406-14.47693239 74.6932599-22.7656421 99.76545928l-0.94363748 3.04208384c0 0-8.28768988 0.42030118-11.59195128 0.42030118l-41.91077658-0.21015058-35.51138249-160.14195009c-12.43153382-62.47187666-20.40501816-106.16587322-24.39175932-133.59971641-2.09844638-17.73018767-3.09411183-30.84216056-3.09411182-39.34000105 0-2.51772771 0.7865347-7.92043552 2.5697547-16.10407044 1.5730694-17.57104421 8.39276469-31.21043477 20.24689454-40.23263136 11.43484853-8.60291527 27.48587116-13.74242565 47.89088833-15.21144013 10.85846444-1.67916503 18.25454379-2.57077553 21.55880619-2.57077552 23.28897839 0 43.22064757 6.03214073 59.16761426 17.99236524 16.4713238 12.27341122 24.75799285 29.68837249 24.75799287 51.87661064C602.75797079 305.71467607 599.50675619 337.81672134 592.89721153 384.50077378z" fill="#f44444" p-id="22468"></path></svg>