<?xml version="1.0" standalone="no"?><!DOCTYPE svg PUBLIC "-//W3C//DTD SVG 1.1//EN" "http://www.w3.org/Graphics/SVG/1.1/DTD/svg11.dtd"><svg t="1566047969926" class="icon" viewBox="0 0 1025 1024" version="1.1" xmlns="http://www.w3.org/2000/svg" p-id="1338" xmlns:xlink="http://www.w3.org/1999/xlink" width="128.125" height="128"><defs><style type="text/css"></style></defs><path d="M639.398 1011.478 69.965 1011.478c-31.635 0-57.42-27.085-57.42-60.02L12.545 297.092 295.742 0.388l418.046 0c35.395-3.972 61.315 23.182 57.42 56.192l0.365 338.592-0.445 0 0 51.352-68.32 0-10.55 0 0-51.352L692.258 79.112 312.787 79.112l0 237.044L91.632 316.156l0 616.446 547.766 0L639.398 1011.478zM1023.997 686.748 842.993 686.748l0-181L699.478 505.748l0 180.93-181.21 0 0 143.515 180.995 0 0 181.21 143.585 0 0-181 181.15 0L1023.998 686.748z" p-id="1339" fill="#bdbdbd"></path></svg>