<?xml version="1.0" standalone="no"?><!DOCTYPE svg PUBLIC "-//W3C//DTD SVG 1.1//EN" "http://www.w3.org/Graphics/SVG/1.1/DTD/svg11.dtd"><svg t="1582949999210" class="icon" viewBox="0 0 1024 1024" version="1.1" xmlns="http://www.w3.org/2000/svg" p-id="21242" width="128" height="128" xmlns:xlink="http://www.w3.org/1999/xlink"><defs><style type="text/css"></style></defs><path d="M897.322085 546.208934a320.493772 320.493772 0 0 1-404.904971 39.421758l-145.783709 145.527723 22.654712 22.654712a63.99636 63.99636 0 0 1-90.682843 90.490853l-22.654711-22.654711-70.395996 70.395996 22.654711 22.654711a63.99636 63.99636 0 0 1-90.682842 90.490854l-22.654712-22.590715-45.373419-45.245427a63.99636 63.99636 0 0 1 0-90.490853L402.566224 494.435879a319.981801 319.981801 0 1 1 494.755861 51.773055z m-90.682843-362.027409A191.669099 191.669099 0 1 0 863.020036 319.981801a191.285121 191.285121 0 0 0-56.636779-135.800276z" fill="#bdbdbd" p-id="21243"></path></svg>