<?xml version="1.0" standalone="no"?><!DOCTYPE svg PUBLIC "-//W3C//DTD SVG 1.1//EN" "http://www.w3.org/Graphics/SVG/1.1/DTD/svg11.dtd"><svg t="1565514592132" class="icon" viewBox="0 0 1024 1024" version="1.1" xmlns="http://www.w3.org/2000/svg" p-id="121626" xmlns:xlink="http://www.w3.org/1999/xlink" width="128" height="128"><defs><style type="text/css"></style></defs><path d="" p-id="121627" fill="#bdbdbd"></path><path d="" p-id="121628" fill="#bdbdbd"></path><path d="" p-id="121629" fill="#bdbdbd"></path><path d="M656.611 159.021h-116.119v-58.060c0-31.935-26.135-58.060-58.060-58.060h-116.119c-31.92 0-58.060 26.124-58.060 58.060v58.060h-116.119v132.263h464.474v-132.263zM482.435 159.021h-116.119v-57.946c0.030-0.030 0.057-0.055 0.114-0.113h115.92c0.030 0.030 0.085 0.057 0.114 0.113l-0.031 57.946zM772.73 384.428v-196.377c0-15.962-13.067-29.030-29.030-29.030h-58.060v58.060h29.030v167.349h-332.523v451.125h-248.070v-618.474h29.030v-58.060h-58.060c-15.962 0-29.030 13.069-29.030 29.030v676.533c0 15.962 13.069 29.030 29.030 29.030h277.101v78.24h395.86l168.901-160.206v-427.218h-174.179zM778.94 889.755v-75.934h85.869l-85.869 75.934zM888.85 755.76h-167.969v158.034h-280.673v-471.308h448.642v313.274z" p-id="121630" fill="#bdbdbd"></path><path d="M515.965 566.99h298.059v58.369h-298.059v-58.369z" p-id="121631" fill="#bdbdbd"></path><path d="M515.965 730.922h151.131v58.369h-151.131v-58.369z" p-id="121632" fill="#bdbdbd"></path></svg>