<?xml version="1.0" standalone="no"?><!DOCTYPE svg PUBLIC "-//W3C//DTD SVG 1.1//EN" "http://www.w3.org/Graphics/SVG/1.1/DTD/svg11.dtd"><svg t="1566456226363" class="icon" viewBox="0 0 1024 1024" version="1.1" xmlns="http://www.w3.org/2000/svg" p-id="17494" xmlns:xlink="http://www.w3.org/1999/xlink" width="128" height="128"><defs><style type="text/css"></style></defs><path d="M701 759.6c0 13.7-12 25.8-25.8 25.8H348.8c-13.7 0-25.8-12-25.8-25.8V227.1c0-13.7 12-25.8 25.8-25.8h326.4c13.7 0 25.8 12 25.8 25.8v532.5zM512 922.8c-29.2 0-51.5-22.3-51.5-51.5s22.3-51.5 51.5-51.5 51.5 22.3 51.5 51.5-22.3 51.5-51.5 51.5z m292-790.2c0-37.8-30.9-68.7-68.7-68.7H288.7c-37.8 0-68.7 30.9-68.7 68.7v755.9c0 37.8 30.9 68.7 68.7 68.7h446.7c37.8 0 68.7-30.9 68.7-68.7V132.6z" p-id="17495" fill="#bdbdbd"></path></svg>