<?xml version="1.0" standalone="no"?><!DOCTYPE svg PUBLIC "-//W3C//DTD SVG 1.1//EN" "http://www.w3.org/Graphics/SVG/1.1/DTD/svg11.dtd"><svg t="1566456398402" class="icon" viewBox="0 0 1024 1024" version="1.1" xmlns="http://www.w3.org/2000/svg" p-id="29667" xmlns:xlink="http://www.w3.org/1999/xlink" width="128" height="128"><defs><style type="text/css"></style></defs><path d="M1024 256c0-43.323077-35.446154-78.769231-78.769231-78.769231H78.769231c-43.323077 0-78.769231 35.446154-78.769231 78.769231v512c0 43.323077 35.446154 78.769231 78.769231 78.769231h866.461538c43.323077 0 78.769231-35.446154 78.769231-78.769231V256zM98.461538 571.076923c-33.476923 0-59.076923-25.6-59.076923-59.076923s25.6-59.076923 59.076923-59.076923 59.076923 25.6 59.076924 59.076923-25.6 59.076923-59.076924 59.076923z m768 128c0 15.753846-13.784615 29.538462-29.538461 29.538462h-610.461539c-15.753846 0-29.538462-13.784615-29.538461-29.538462v-374.153846c0-15.753846 13.784615-29.538462 29.538461-29.538462h610.461539c15.753846 0 29.538462 13.784615 29.538461 29.538462v374.153846z" p-id="29668" fill="#bdbdbd"></path></svg>