<?xml version="1.0" standalone="no"?><!DOCTYPE svg PUBLIC "-//W3C//DTD SVG 1.1//EN" "http://www.w3.org/Graphics/SVG/1.1/DTD/svg11.dtd"><svg t="1565514912696" class="icon" viewBox="0 0 1024 1024" version="1.1" xmlns="http://www.w3.org/2000/svg" p-id="122491" xmlns:xlink="http://www.w3.org/1999/xlink" width="128" height="128"><defs><style type="text/css"></style></defs><path d="M512 0C229.248 0 0 229.248 0 512s229.248 512 512 512 512-229.248 512-512S794.752 0 512 0z m311.04 823.04A438.357333 438.357333 0 0 1 512 951.893333a439.466667 439.466667 0 0 1-311.125333-128.853333A438.357333 438.357333 0 0 1 72.149333 512c0-59.434667 11.605333-117.034667 34.56-171.221333a439.466667 439.466667 0 0 1 94.293334-139.904A438.357333 438.357333 0 0 1 512 72.149333c59.434667 0 117.034667 11.605333 171.221333 34.56a439.466667 439.466667 0 0 1 139.904 94.293334A438.357333 438.357333 0 0 1 951.850667 512c0 59.434667-11.605333 117.034667-34.56 171.221333a437.376 437.376 0 0 1-94.293334 139.776z m-111.061333-324.778667L420.522667 250.282667a21.546667 21.546667 0 0 0-14.336-5.418667c-10.794667 0-21.034667 7.509333-21.034667 19.072v496.042667c0 11.434667 10.24 19.029333 21.034667 19.029333a21.034667 21.034667 0 0 0 14.336-5.376l291.456-248.021333c8.533333-7.509333 8.533333-19.84 0-27.306667z" p-id="122492" fill="#bdbdbd"></path></svg>