<?xml version="1.0" standalone="no"?><!DOCTYPE svg PUBLIC "-//W3C//DTD SVG 1.1//EN" "http://www.w3.org/Graphics/SVG/1.1/DTD/svg11.dtd"><svg t="1568559417272" class="icon" viewBox="0 0 1024 1024" version="1.1" xmlns="http://www.w3.org/2000/svg" p-id="12833" xmlns:xlink="http://www.w3.org/1999/xlink" width="128" height="128"><defs><style type="text/css"></style></defs><path d="M938.1 477l-349 410c-19 22.4-47.2 35.1-77.2 35.1-30.1 0-58.3-12.9-77.2-35.1l-349-409.9c-13.5-15.8-21.1-35-22.2-55.4-1-20.4 4.7-40.2 16.6-57.2l152.3-218c18.6-26.4 49.5-42.3 82.8-42.3h393.3c33.4 0 64.4 15.8 82.8 42.3l152.3 218c11.8 17 17.5 36.8 16.6 57.1-1 20.4-8.7 39.6-22.1 55.4z m-49.8-77.4l-152.2-218c-6.1-8.8-16.5-14.1-27.6-14.1H315.1c-11.1 0-21.5 5.3-27.6 14.1l-152.2 218c-8.1 11.6-7.4 26.7 1.9 37.5l349 410c6.3 7.4 15.8 11.7 25.7 11.7 10 0 19.4-4.3 25.7-11.7l349-410c9.2-10.7 9.9-25.9 1.7-37.5zM537.8 692.1c-6.3 7.5-15.9 11.9-25.9 11.9-10.1 0-19.6-4.4-25.9-11.9L314 496.3c-11.4-13.7-9.1-33.6 5.2-44.5 14.3-10.9 35.2-8.7 46.7 5l146 164.9 146.6-165.5c11.5-13.7 32.3-15.8 46.7-5 14.3 11 16.6 30.9 5.2 44.5L537.8 692.1z" fill="#AAB0ED" p-id="12834"></path></svg>