<?xml version="1.0" standalone="no"?><!DOCTYPE svg PUBLIC "-//W3C//DTD SVG 1.1//EN" "http://www.w3.org/Graphics/SVG/1.1/DTD/svg11.dtd"><svg t="1565449728689" class="icon" viewBox="0 0 1024 1024" version="1.1" xmlns="http://www.w3.org/2000/svg" p-id="28990" xmlns:xlink="http://www.w3.org/1999/xlink" width="128" height="128"><defs><style type="text/css"></style></defs><path d="M436.662857 986.148571c-20.114286 0-36.571429-16.457143-36.571428-36.571428V749.348571c0-24.502857 4.022857-58.331429 23.771428-80.822857L841.874286 181.211429 114.468571 570.514286l231.68 74.605714c19.2 6.217143 29.805714 26.88 23.588572 46.08-6.217143 19.2-26.88 29.805714-46.08 23.588571L38.948571 622.994286C5.302857 612.571429 0.731429 587.52 0.182857 580.205714c-0.548571-7.314286 0-32.548571 31.268572-48.274285L946.651429 42.24c10.422857-5.668571 22.491429-5.668571 32.548571-1.097143 7.862857-0.914286 15.542857 0.548571 22.674286 4.205714 8.96 4.571429 28.708571 19.382857 19.931428 55.954286L878.262857 833.828571c-0.182857 0.548571-0.182857 1.097143-0.365714 1.645715-4.937143 19.931429-17.371429 36.754286-34.194286 46.08-15.177143 8.594286-32.731429 10.422857-49.188571 5.12l-285.257143-89.051429c-19.2-6.034286-29.988571-26.514286-23.954286-45.897143 6.034286-19.2 26.514286-29.988571 45.897143-23.954285l276.662857 86.491428 122.148572-623.177143L479.085714 716.251429c-1.828571 2.377143-6.034286 14.08-6.034285 33.097142v200.228572c0.182857 20.114286-16.274286 36.571429-36.388572 36.571428z" p-id="28991" fill="#bdbdbd"></path></svg>