<?xml version="1.0" standalone="no"?><!DOCTYPE svg PUBLIC "-//W3C//DTD SVG 1.1//EN" "http://www.w3.org/Graphics/SVG/1.1/DTD/svg11.dtd"><svg t="1565449788599" class="icon" viewBox="0 0 1024 1024" version="1.1" xmlns="http://www.w3.org/2000/svg" p-id="31088" xmlns:xlink="http://www.w3.org/1999/xlink" width="128" height="128"><defs><style type="text/css"></style></defs><path d="M117.129846 884.657231V77.036308h725.149539v259.072l77.824-38.124308V67.111385c0-36.548923-31.665231-66.402462-70.498462-66.402462H109.804308C70.971077 0.787692 39.384615 30.562462 39.384615 67.111385v827.392c0 36.548923 31.665231 66.323692 70.419693 66.323692h286.011077l-133.907693-76.169846H117.051077z" p-id="31089" fill="#bdbdbd"></path><path d="M982.882462 423.620923a35.288615 35.288615 0 0 0-35.052308-28.672h-0.472616a36.155077 36.155077 0 0 0-16.777846 3.938462L378.801231 681.353846a35.131077 35.131077 0 0 0-14.966154 47.025231c3.387077 7.246769 9.137231 13.312 16.305231 17.014154l136.900923 70.262154 0.236307 0.078769a35.131077 35.131077 0 0 0 46.710154-15.832616 35.524923 35.524923 0 0 0-15.911384-47.655384l-76.484923-39.069539L808.172308 540.750769l-216.615385 256.472616a35.446154 35.446154 0 0 0-8.428308 23.630769v154.230154c0 19.377231 15.990154 35.288615 35.761231 35.288615 19.692308 0 35.761231-15.753846 35.761231-35.288615V832.827077l239.222154-283.254154-51.515077 347.687385-123.746462-59.864616a35.446154 35.446154 0 0 0-27.254154-1.575384 35.052308 35.052308 0 0 0-3.938461 64.984615l157.302154 76.091077v0.078769l9.452307 4.647385a35.367385 35.367385 0 0 0 21.976616 2.914461 35.446154 35.446154 0 0 0 30.011077-29.774769L982.567385 439.926154a39.542154 39.542154 0 0 0 0.315077-16.305231" p-id="31090" fill="#bdbdbd"></path></svg>