<?xml version="1.0" standalone="no"?><!DOCTYPE svg PUBLIC "-//W3C//DTD SVG 1.1//EN" "http://www.w3.org/Graphics/SVG/1.1/DTD/svg11.dtd"><svg t="1565449694027" class="icon" viewBox="0 0 1024 1024" version="1.1" xmlns="http://www.w3.org/2000/svg" p-id="28639" xmlns:xlink="http://www.w3.org/1999/xlink" width="128" height="128"><defs><style type="text/css"></style></defs><path d="M1011.88484096 52.088318862222536c-3.1377749333333327-2.4834412088888884-7.43169479111111-2.9223810844444422-10.931566364444443-1.0734796799999997L13.803386880000232 555.8159155200009c-3.6745147733333323 1.8873218844444442-5.840104106666667 5.781889706666664-5.521087146666666 9.895343217777775 0.3620955022222222 4.111125617777777 3.140103964444442 7.607504213333333 7.0742562133333315 8.862614186666667l330.4397425777777 105.03338552888889c3.476584675555555 1.090944568888889 7.2314368 0.2759384177777777 9.89650830222222-2.148124444444444L812.8241516088891 265.59325184 447.8316248177779 697.628216888889c-2.207503928888888 2.6021990399999995-2.960802702222222 6.159121066666666-1.9874520177777768 9.436611697777774 0.9710216533333329 3.2798196622222218 3.516171377777777 5.864553813333332 6.790169031111111 6.856533333333333l366.66911175111096 111.69082481777777c0.9477358933333333 0.2992241777777777 1.9490303999999996 0.43661084444444426 2.9398448355555553 0.43661084444444426 1.7441143466666664 0 3.492885617777777-0.45756757333333314 5.046054684444444-1.3331182933333325 2.4217338311111103-1.3878397155555553 4.19146183111111-3.7129363911111093 4.845795555555555-6.437387377777778L1015.4568988444444 62.478487324444586C1016.3964848355555 58.60604245333337 1014.9993301333328 54.553131235555725 1011.88484096 52.088318862222536z" p-id="28640" fill="#bdbdbd"></path><path d="M559.9194737777777 794.13547008l-101.34140586666666-31.173999502222216c-3.0609316977777774-0.9943074133333332-6.435058346666667-0.39702414222222226-9.020957582222218 1.5275554133333331-2.6033641244444445 1.9315655111111107-4.134411377777777 4.969211448888887-4.134411377777777 8.188486542222222l0 191.2692269511111c0 4.5326006044444425 2.984088462222222 8.505175608888887 7.350194631111108 9.775421439999999 0.916300231111111 0.2596374755555555 1.8710220799999995 0.3981892266666666 2.8292369066666647 0.3981892266666666 3.4160412444444446 0 6.6923679288888875-1.728978488888888 8.584347875555554-4.7305307022222225l101.32976298666665-160.08940543999998c1.7103496533333324-2.684864284444444 2.0689521777777773-6.003105564444444 0.9570508799999998-8.96274318222222C565.3800174933333 797.3570742044445 562.9547906844439 795.0715630933333 559.9194737777777 794.13547008z" p-id="28641" fill="#bdbdbd"></path></svg>