<?xml version="1.0" standalone="no"?><!DOCTYPE svg PUBLIC "-//W3C//DTD SVG 1.1//EN" "http://www.w3.org/Graphics/SVG/1.1/DTD/svg11.dtd"><svg t="1565450143245" class="icon" viewBox="0 0 1024 1024" version="1.1" xmlns="http://www.w3.org/2000/svg" p-id="40616" xmlns:xlink="http://www.w3.org/1999/xlink" width="128" height="128"><defs><style type="text/css"></style></defs><path d="M902 616.2H642c-14.4 0-26 11.7-26 26s13.6 24.4 24.7 35.3l72.2 72.2c-54.3 46-124.2 74.1-201 74.1-141.3 0-260.4-94.1-298.7-222.8-6.5-22-26.8-37-49.8-37-34.8 0-59.8 33.6-49.8 67 51.2 171.6 210 296.8 398.3 296.8 105.5 0 201.6-39.5 274.8-104.2l74.5 74.6c14 14 26.3 29.9 40.7 29.9 14.3 0 26-11.7 26-26V642.2c0.1-3.1 0.1-26-25.9-26zM122 407.8h260c14.4 0 26-11.7 26-26s-13.6-24.4-24.7-35.3L311 274.2c54.3-46 124.2-74.1 201-74.1 141.3 0 260.4 94.1 298.7 222.8 6.5 22 26.8 37 49.8 37 34.8 0 59.8-33.6 49.8-67C859.1 221.4 700.3 96.3 512 96.3c-105.5 0-201.6 39.5-274.8 104.2l-74.5-74.6c-14-14-26.3-29.9-40.7-29.9-14.3 0-26 11.7-26 26v259.8c0 3.1 0 26 26 26z" p-id="40617" fill="#bdbdbd"></path></svg>