<?xml version="1.0" standalone="no"?><!DOCTYPE svg PUBLIC "-//W3C//DTD SVG 1.1//EN" "http://www.w3.org/Graphics/SVG/1.1/DTD/svg11.dtd"><svg t="1565450509196" class="icon" viewBox="0 0 1024 1024" version="1.1" xmlns="http://www.w3.org/2000/svg" p-id="50673" xmlns:xlink="http://www.w3.org/1999/xlink" width="128" height="128"><defs><style type="text/css"></style></defs><path d="M165.225472 723.83488l164.743168-241.850368H215.51104c14.16704-163.432448 138.6496-295.780352 300.908544-319.9232 162.260992-24.141824 319.879168 66.229248 381.016064 218.46016 61.135872 152.224768 9.80992 326.514688-124.077056 421.308416-133.886976 94.792704-315.329536 85.312512-438.59968-22.925312 0 0-41.260032-29.8496-71.284736 13.497344-22.581248 32.600064 10.942464 64.569344 10.942464 64.569344 159.688704 136.70912 392.403968 145.757184 562.233344 21.8624 169.829376-123.895808 232.25344-348.2624 150.821888-542.06976-81.436672-193.80736-285.37856-306.24768-492.73344-271.659008-207.361024 34.587648-363.766784 207.135744-377.885696 416.88064H0L165.225472 723.83488z m0 0" p-id="50674" fill="#bdbdbd"></path></svg>