<?xml version="1.0" standalone="no"?><!DOCTYPE svg PUBLIC "-//W3C//DTD SVG 1.1//EN" "http://www.w3.org/Graphics/SVG/1.1/DTD/svg11.dtd"><svg t="1565448637642" class="icon" viewBox="0 0 1024 1024" version="1.1" xmlns="http://www.w3.org/2000/svg" p-id="11418" xmlns:xlink="http://www.w3.org/1999/xlink" width="128" height="128"><defs><style type="text/css"></style></defs><path d="M917.331968 957.867008c0 22.3744-16.495616 40.532992-36.842496 40.532992L143.509504 998.4c-20.345856 0-36.84352-18.158592-36.84352-40.532992l0 0c0-22.3744 16.497664-40.532992 36.84352-40.532992l736.979968 0C900.836352 917.334016 917.331968 935.492608 917.331968 957.867008L917.331968 957.867008 917.331968 957.867008z" p-id="11419" fill="#bdbdbd"></path><path d="M906.917888 237.833216 705.05984 35.976192C698.130432 29.085696 689.007616 25.6 679.849984 25.6c-9.161728 0-18.282496 3.485696-25.213952 10.416128L200.460288 490.151936c-13.861888 13.863936-28.818432 40.8576-33.238016 59.99104l-59.664384 258.439168c-2.188288 9.566208-0.283648 17.347584 4.538368 22.212608 3.52768 3.48672 8.554496 5.472256 14.675968 5.472256 2.35008 0 4.901888-0.282624 7.5776-0.93184l258.44224-59.666432c19.132416-4.417536 46.12608-19.37408 59.987968-33.238016l454.137856-454.13376C920.819712 274.432 920.819712 251.734016 906.917888 237.833216L906.917888 237.833216zM395.669504 684.954624c-4.054016 3.729408-16.012288 10.37824-21.078016 11.754496l-166.838272 38.50752 38.427648-166.592512c1.460224-5.310464 8.105984-17.306624 11.633664-21.158912l237.76768-237.768704 137.652224 137.653248L395.669504 684.954624 395.669504 684.954624zM690.54976 390.03648 552.896512 252.383232l126.954496-126.9504L817.50016 263.083008 690.54976 390.03648 690.54976 390.03648z" p-id="11420" fill="#bdbdbd"></path></svg>