<?xml version="1.0" standalone="no"?><!DOCTYPE svg PUBLIC "-//W3C//DTD SVG 1.1//EN" "http://www.w3.org/Graphics/SVG/1.1/DTD/svg11.dtd"><svg t="1565515278233" class="icon" viewBox="0 0 1024 1024" version="1.1" xmlns="http://www.w3.org/2000/svg" p-id="140595" xmlns:xlink="http://www.w3.org/1999/xlink" width="128" height="128"><defs><style type="text/css"></style></defs><path d="M487.2 63.8L331.4 203.2l155.8 139.4v-101h24.2c172.3 0 312.1 141.5 312.1 316.1 0 174.6-139.7 316.1-312.1 316.1-172.3 0-312.1-141.5-312.1-316.1 0-32.5 4.9-64.4 14.3-94.7l-80-29.4c-12.7 39.7-19.3 81.4-19.3 124.1 0 222.1 177.7 402.1 397 402.1s397-180 397-402.1c0-222.1-177.7-402.1-397-402.1h-24.2V63.8z" fill="#bdbdbd" p-id="140596"></path><path d="M453.3 557.8a60.5 61 0 1 0 121 0 60.5 61 0 1 0-121 0Z" fill="#bdbdbd" p-id="140597"></path></svg>