<?xml version="1.0" standalone="no"?><!DOCTYPE svg PUBLIC "-//W3C//DTD SVG 1.1//EN" "http://www.w3.org/Graphics/SVG/1.1/DTD/svg11.dtd"><svg t="1585102312590" class="icon" viewBox="0 0 1025 1024" version="1.1" xmlns="http://www.w3.org/2000/svg" p-id="4330" xmlns:xlink="http://www.w3.org/1999/xlink" width="128.125" height="128"><defs><style type="text/css"></style></defs><path d="M986.632 947.2h-947.2C18.28 947.2 1 964.48 1 985.601 1 1006.72 18.28 1024 39.432 1024h947.2c21.12 0 38.368-17.28 38.368-38.399 0-21.121-17.249-38.401-38.368-38.401zM713.91 450.404c-13.216 0-24.014 10.346-24.98 23.454l-0.326-0.082C674.75 571 585.713 638.743 489.345 625.065c-96.527-13.678-163.808-103.905-150.273-201.451 13.614-97.548 102.891-165.539 199.425-151.774 27.069 3.822 51.895 13.758 73.239 28.09l-31.096 49.18c-1.531 2.361 0.558 5.375 3.302 4.803l116.84-25.814a3.205 3.205 0 0 0 2.41-3.742L677.493 205.8c-0.567-2.772-4.194-3.418-5.645-1.057l-33.035 52.269c-27.235-18.158-58.819-30.693-93.304-35.583-124.09-17.582-238.746 69.707-256.155 195.106-17.404 125.394 68.978 241.266 193.061 258.853 123.849 17.587 238.42-69.458 256.075-194.529 0.239-1.628 0.399-3.417 0.399-5.213 0-13.919-11.199-25.242-24.979-25.242z" p-id="4331" fill="#bdbdbd"></path><path d="M895.848 0H130.152C58.823 0 1 57.823 1 129.152v621.599c0 71.329 57.823 129.152 129.152 129.152h765.696c71.329 0 129.152-57.823 129.152-129.152V129.152C1025 57.823 967.177 0 895.848 0zM948.2 750.751c0 28.928-23.552 52.353-52.352 52.353H130.152c-28.897 0-52.321-23.553-52.321-52.353V129.152c0-28.928 23.52-52.352 52.321-52.352h765.696c28.928 0 52.352 23.552 52.352 52.352v621.599z" p-id="4332" fill="#bdbdbd"></path></svg>