<?xml version="1.0" standalone="no"?><!DOCTYPE svg PUBLIC "-//W3C//DTD SVG 1.1//EN" "http://www.w3.org/Graphics/SVG/1.1/DTD/svg11.dtd"><svg t="1565449653609" class="icon" viewBox="0 0 1024 1024" version="1.1" xmlns="http://www.w3.org/2000/svg" p-id="27809" xmlns:xlink="http://www.w3.org/1999/xlink" width="128" height="128"><defs><style type="text/css"></style></defs><path d="M810.4 63.4H120.2c-30.9 0-56 25.1-56 56v783.7c0 30.9 25.1 56 56 56h783.7c30.9 0 56-25.1 56-56V212.7L810.4 63.4zM278 121.9h467.9V359c0 30.2-24.2 54.7-54 54.7H332c-29.8 0-54-24.5-54-54.7V121.9z m487.1 778.6H258.9V608.4c0-32.3 23.9-58.4 53.3-58.4h399.7c29.4 0 53.3 26.2 53.3 58.4v292.1z m-58.5-739.9H570.4v214.5h136.2V160.6z" p-id="27810" fill="#bdbdbd"></path></svg>