<?xml version="1.0" standalone="no"?><!DOCTYPE svg PUBLIC "-//W3C//DTD SVG 1.1//EN" "http://www.w3.org/Graphics/SVG/1.1/DTD/svg11.dtd"><svg t="1565450591549" class="icon" viewBox="0 0 1024 1024" version="1.1" xmlns="http://www.w3.org/2000/svg" p-id="51530" xmlns:xlink="http://www.w3.org/1999/xlink" width="128" height="128"><defs><style type="text/css"></style></defs><path d="M938.176 832.512l-214.336-214.4c-2.496-2.496-5.248-4.352-7.872-6.528 36.16-55.552 57.344-121.728 57.344-193.024C773.312 222.72 614.592 64 418.688 64 222.848 64 64 222.72 64 418.624s158.848 354.624 354.688 354.624c71.232 0 137.472-21.248 193.216-57.344 1.984 2.752 3.904 5.376 6.336 7.744l214.4 214.528C847.232 952.768 866.24 960 885.376 960s38.208-7.232 52.8-21.888C967.296 908.992 967.296 861.76 938.176 832.512M418.688 661.248c-133.76 0-242.688-108.864-242.688-242.624 0-133.76 108.928-242.688 242.688-242.688s242.624 108.928 242.624 242.688C661.312 552.384 552.448 661.248 418.688 661.248" p-id="51531" fill="#bdbdbd"></path></svg>