<?xml version="1.0" standalone="no"?><!DOCTYPE svg PUBLIC "-//W3C//DTD SVG 1.1//EN" "http://www.w3.org/Graphics/SVG/1.1/DTD/svg11.dtd"><svg t="1565515628808" class="icon" viewBox="0 0 1024 1024" version="1.1" xmlns="http://www.w3.org/2000/svg" p-id="155976" xmlns:xlink="http://www.w3.org/1999/xlink" width="128" height="128"><defs><style type="text/css"></style></defs><path d="M878.330266 776.535189c0 55.722249-45.396993 101.119242-101.716571 101.119242H101.034762A101.37524 101.37524 0 0 1 0.000853 775.852528V100.273595C0.000853 44.636679 45.397846-0.674982 101.034762 0.00768h676.261595c55.636916 0 101.033909 45.396993 101.033909 101.033909V776.535189zM496.38113 435.460414l192.595889-192.681222a37.461052 37.461052 0 0 0 0-52.479606 37.461052 37.461052 0 0 0-52.479606 0L443.901524 382.810142l-192.681221-192.851887a37.461052 37.461052 0 0 0-52.479607 0 37.461052 37.461052 0 0 0 0 52.479607L391.336585 435.204416 198.484698 628.056303a37.461052 37.461052 0 0 0 0 52.479606c14.506558 14.335892 37.887716 14.335892 52.479606 0l192.595889-192.595889 192.681222 192.595889c14.506558 14.335892 37.887716 14.335892 52.479606 0a37.461052 37.461052 0 0 0 0-52.479606L496.38113 435.375081zM951.460384 149.339893v757.583652a44.03167 44.03167 0 0 1-43.946337 43.861004H150.015728c12.458573 42.495681 51.199616 73.215451 97.364603 73.215451h675.578933c55.636916 0 101.033909-45.396993 101.033909-101.033909V246.704496a99.924584 99.924584 0 0 0-72.532789-97.364603z" p-id="155977" fill="#bdbdbd"></path></svg>