<?xml version="1.0" standalone="no"?><!DOCTYPE svg PUBLIC "-//W3C//DTD SVG 1.1//EN" "http://www.w3.org/Graphics/SVG/1.1/DTD/svg11.dtd"><svg t="1565515373878" class="icon" viewBox="0 0 1024 1024" version="1.1" xmlns="http://www.w3.org/2000/svg" p-id="141739" xmlns:xlink="http://www.w3.org/1999/xlink" width="128" height="128"><defs><style type="text/css"></style></defs><path d="M512 116h396c30 0 54 24 54 54s-24 54-54 54H512c-30 0-54-24-54-54s24-54 54-54zM512 452h396c30 0 54 24 54 54s-24 54-54 54H512c-30 0-54-24-54-54S482 452 512 452z m0 330h396c30 0 54 24 54 54s-24 54-54 54H512c-30 0-54-24-54-54s24-54 54-54z m-312 18l120-120c18-18 48-18 66 0 18 18 18 48 0 66l-150 150c-18 18-42 18-60 0L74 794c-18-18-18-42 0-60 18-18 42-18 60 0l66 66z m0-270l120-120c18-18 48-18 66 0 18 18 18 48 0 66L242 620c-18 18-42 18-60 0L74 518c-18-18-18-42 0-60 18-18 42-18 60 0l66 72z m0-282l120-120c18-18 48-18 66 0 18 18 18 48 0 66L242 344c-18 18-42 18-60 0L74 242c-18-18-18-42 0-60s42-18 60 0l66 66z" p-id="141740" fill="#bdbdbd"></path></svg>