<?xml version="1.0" standalone="no"?><!DOCTYPE svg PUBLIC "-//W3C//DTD SVG 1.1//EN" "http://www.w3.org/Graphics/SVG/1.1/DTD/svg11.dtd"><svg t="1565515758101" class="icon" viewBox="0 0 1024 1024" version="1.1" xmlns="http://www.w3.org/2000/svg" p-id="158659" xmlns:xlink="http://www.w3.org/1999/xlink" width="128" height="128"><defs><style type="text/css"></style></defs><path d="M960.163 489.052l0.002 430.019 0.001 0.012c0 18.861-12.905 34.708-30.36 39.202a40.859 40.859 0 0 1-10.115 1.272h-0.006l-559.495 0.001c-22.353-0.001-40.475-18.123-40.478-40.478 0-22.354 18.121-40.475 40.475-40.475l519.029-0.001-0.003-389.553c0.003-22.357 18.124-40.478 40.478-40.478 22.35 0.004 40.471 18.126 40.472 40.479z" p-id="158660" fill="#bdbdbd"></path><path d="M741.773 106.259l-587.031 0.06c-23.046 0-48.919 26.037-48.919 48.943v586.649c0 24.803 25.881 48.848 48.919 48.977h587.031c24.215-0.129 48.919-24.183 48.919-48.977V155.262c0-22.841-24.696-48.943-48.919-49.003z m-37.296 597.964h-512.44V191.784h512.439v512.439z" p-id="158661" fill="#bdbdbd"></path></svg>