<?xml version="1.0" standalone="no"?><!DOCTYPE svg PUBLIC "-//W3C//DTD SVG 1.1//EN" "http://www.w3.org/Graphics/SVG/1.1/DTD/svg11.dtd"><svg t="1565450472447" class="icon" viewBox="0 0 1024 1024" version="1.1" xmlns="http://www.w3.org/2000/svg" p-id="49942" xmlns:xlink="http://www.w3.org/1999/xlink" width="128" height="128"><defs><style type="text/css"></style></defs><path d="M510.408 960.415c-60.29 0-118.798-11.817-173.899-35.123-53.2-22.502-100.97-54.707-141.984-95.72-41.013-41.013-73.218-88.784-95.72-141.984C75.5 632.486 63.682 573.98 63.682 513.69c0-60.29 11.818-118.797 35.123-173.898 22.502-53.2 54.707-100.97 95.72-141.984 41.013-41.014 88.784-73.218 141.984-95.721 55.102-23.306 113.609-35.123 173.899-35.123s118.797 11.817 173.898 35.123c53.2 22.503 100.971 54.707 141.984 95.721 41.013 41.013 73.219 88.784 95.72 141.984 23.306 55.1 35.123 113.608 35.123 173.898 0 60.29-11.817 118.798-35.123 173.9-22.501 53.199-54.707 100.97-95.72 141.983s-88.784 73.218-141.984 95.72c-55.1 23.306-113.608 35.123-173.898 35.123z m0-830.007c-102.378 0-198.628 39.868-271.02 112.26-72.393 72.394-112.262 168.644-112.262 271.021s39.868 198.628 112.261 271.021c72.393 72.393 168.643 112.26 271.02 112.26s198.63-39.867 271.021-112.26c72.393-72.393 112.261-168.643 112.261-271.02s-39.868-198.628-112.26-271.021c-72.392-72.393-168.643-112.26-271.021-112.26z" fill="#F56C6C" p-id="49943"></path><path d="M348.904 353.853h323.008v319.672H348.904V353.853z" fill="#F56C6C" p-id="49944"></path></svg>