<?xml version="1.0" standalone="no"?><!DOCTYPE svg PUBLIC "-//W3C//DTD SVG 1.1//EN" "http://www.w3.org/Graphics/SVG/1.1/DTD/svg11.dtd"><svg t="1565448224800" class="icon" viewBox="0 0 1024 1024" version="1.1" xmlns="http://www.w3.org/2000/svg" p-id="2690" xmlns:xlink="http://www.w3.org/1999/xlink" width="128" height="128"><defs><style type="text/css"></style></defs><path d="M981.326 682.65c23.466 0 42.666 19.2 42.666 42.666s-19.2 42.667-42.666 42.667H145.537l183.765 183.21a42.778 42.778 0 0 1 0 60.331 42.778 42.778 0 0 1-60.33 0L12.46 755.78A42.42 42.42 0 0 1 0.044 725.444c0-0.042-0.043-0.085-0.043-0.128 0-2.005 0.896-3.754 1.152-5.717 0.512-3.456 0.768-6.997 2.09-10.283 6.4-15.573 21.633-26.666 39.425-26.666h938.658z m30.216-414.447a42.53 42.53 0 0 1 12.416 30.336c0 0.042 0.043 0.085 0.043 0.128 0 2.005-0.896 3.754-1.195 5.717-0.469 3.499-0.725 6.997-2.09 10.283-6.358 15.573-21.59 26.658-39.382 26.658H42.676c-23.466 0-42.666-19.2-42.666-42.667s19.2-42.667 42.666-42.667H878.431L694.7 72.79c-16.598-16.588-16.598-43.767 0-60.364 16.588-16.555 43.724-16.555 60.33 0l256.512 255.778z" fill="#bdbdbd" p-id="2691"></path></svg>