<?xml version="1.0" standalone="no"?><!DOCTYPE svg PUBLIC "-//W3C//DTD SVG 1.1//EN" "http://www.w3.org/Graphics/SVG/1.1/DTD/svg11.dtd"><svg t="1565541141394" class="icon" viewBox="0 0 1024 1024" version="1.1" xmlns="http://www.w3.org/2000/svg" p-id="252754" xmlns:xlink="http://www.w3.org/1999/xlink" width="128" height="128"><defs><style type="text/css"></style></defs><path d="M892.342857 906.971429H263.314286c-29.257143 0-51.2-21.942857-51.2-51.2 0-29.257143 21.942857-51.2 51.2-51.2h629.028571c29.257143 0 51.2 21.942857 51.2 51.2 0 29.257143-21.942857 51.2-51.2 51.2M791.844571 86.016v336.457143c0 117.028571-95.085714 212.114286-212.114285 212.114286h-7.314286c-117.028571 0-212.114286-95.085714-212.114286-212.114286v-336.457143c0-29.257143-21.942857-51.2-51.2-51.2-29.257143 0-51.2 29.257143-51.2 51.2v336.457143c0 175.542857 138.971429 314.514286 314.514286 314.514286h7.314286c175.542857 0 314.514286-138.971429 314.514285-314.514286v-336.457143c0-29.257143-21.942857-51.2-51.2-51.2-29.257143 0-51.2 29.257143-51.2 51.2" p-id="252755" fill="#bdbdbd"></path></svg>