<?xml version="1.0" standalone="no"?><!DOCTYPE svg PUBLIC "-//W3C//DTD SVG 1.1//EN" "http://www.w3.org/Graphics/SVG/1.1/DTD/svg11.dtd"><svg t="1565538580919" class="icon" viewBox="0 0 1024 1024" version="1.1" xmlns="http://www.w3.org/2000/svg" p-id="163452" xmlns:xlink="http://www.w3.org/1999/xlink" width="128" height="128"><defs><style type="text/css"></style></defs><path d="M331.86816 55.38816h34.7136c23.49056 0 42.53696 19.0464 42.53696 42.53696 0 23.49056-19.0464 42.53696-42.53696 42.53696h-15.1552c-35.20512 0-52.80768 19.5584-52.80768 60.63104v187.7504c0 61.60384-28.35456 102.67648-85.07392 123.20768 56.71936 23.47008 85.07392 64.53248 85.07392 123.20768v188.7232c0 39.1168 17.60256 59.648 52.80768 59.648h15.1552c23.49056 0 42.53696 19.0464 42.53696 42.53696 0 23.49056-19.0464 42.53696-42.53696 42.53696h-34.7136c-44.98432 0-79.2064-14.66368-102.67648-43.02848-21.51424-26.39872-32.26624-61.60384-32.26624-105.60512V641.10592c0-28.35456-5.86752-48.896-17.60256-60.63104-8.27392-9.46176-20.49024-16.41472-36.41344-20.86912-21.36064-5.98016-35.9424-25.71264-35.9424-47.90272 0-22.34368 14.87872-41.89184 36.36224-48.01536 15.7184-4.48512 27.79136-10.92608 35.9936-19.13856 11.73504-13.69088 17.60256-34.22208 17.60256-61.60384V204.92288c0-44.98432 10.752-80.1792 32.26624-106.58816 23.47008-29.3376 57.69216-43.02848 102.67648-43.02848v0.08192zM614.89152 97.91488c0-23.49056 19.0464-42.53696 42.53696-42.53696h34.7136c44.00128 0 78.22336 13.69088 102.67648 43.02848 21.51424 26.39872 32.26624 61.60384 32.26624 106.58816v177.9712c0 27.38176 5.86752 48.896 18.57536 62.58688 7.72096 8.31488 19.4048 14.45888 35.26656 18.66752 21.4016 5.67296 36.11648 25.31328 36.11648 47.45216v0.84992c0 22.0672-14.91968 41.1136-36.17792 47.04256-15.95392 4.4544-27.87328 11.42784-36.18816 20.93056-11.73504 11.73504-17.60256 32.26624-17.60256 60.63104v178.944c0 44.00128-10.752 79.2064-32.26624 105.60512-24.44288 28.35456-58.6752 43.02848-102.67648 43.02848h-34.7136c-23.49056 0-42.53696-19.0464-42.53696-42.53696 0-23.49056 19.0464-42.53696 42.53696-42.53696h15.1552c35.20512 0 52.80768-20.5312 52.80768-59.648V635.17696c0-58.6752 28.35456-99.7376 85.07392-123.20768-56.71936-20.5312-85.07392-61.60384-85.07392-123.20768V201.08288c0-41.07264-17.60256-60.63104-52.80768-60.63104h-15.1552c-23.49056 0-42.52672-19.03616-42.52672-42.53696z" p-id="163453" fill="#bdbdbd"></path></svg>