<?xml version="1.0" standalone="no"?><!DOCTYPE svg PUBLIC "-//W3C//DTD SVG 1.1//EN" "http://www.w3.org/Graphics/SVG/1.1/DTD/svg11.dtd"><svg t="1565440496189" class="icon" viewBox="0 0 1024 1024" version="1.1" xmlns="http://www.w3.org/2000/svg" p-id="26340" xmlns:xlink="http://www.w3.org/1999/xlink" width="128" height="128"><defs><style type="text/css"></style></defs><path d="M926.331503 949.065152a46.587866 46.587866 0 0 1-33.836714-12.850965l-262.920756-265.752959a46.23852 46.23852 0 0 1 0-65.80193 45.04076 45.04076 0 0 1 65.20305 0l262.920756 265.752959a48.396983 48.396983 0 0 1 14.098631 33.225358 44.080057 44.080057 0 0 1-11.977598 32.601525 46.263473 46.263473 0 0 1-33.487369 12.863442z" fill="#bdbdbd" p-id="26341"></path><path d="M662.000884 605.682385a30.917175 30.917175 0 0 1 22.208464 9.544648l262.895802 265.752959a33.025732 33.025732 0 0 1 2.108557 44.616553 30.942129 30.942129 0 0 1-22.907157 8.534039 31.740635 31.740635 0 0 1-23.256503-8.534039L640.179198 659.893493a31.728158 31.728158 0 0 1 21.859116-54.211108" fill="#bdbdbd" p-id="26342"></path><path d="M662.000884 575.725913A60.499347 60.499347 0 0 0 618.968868 594.054133a61.634724 61.634724 0 0 0 0 86.987307l263.257626 265.752959a59.339017 59.339017 0 0 0 44.055103 17.267704 59.950374 59.950374 0 0 0 44.055103-17.267704 58.465651 58.465651 0 0 0 16.219664-43.668327A63.718327 63.718327 0 0 0 968.31548 859.794615l-262.933232-265.752959a61.322807 61.322807 0 0 0-43.343934-18.32822z" fill="#bdbdbd" p-id="26343"></path><path d="M813.904277 440.95298L646.143043 274.876096l41.235377-236.34546a30.492969 30.492969 0 0 0-12.688768-31.927785 33.886621 33.886621 0 0 0-34.934661-3.18155L431.50698 115.249647 222.859716 3.421301a35.021998 35.021998 0 0 0-34.934662 3.18155 30.480492 30.480492 0 0 0-12.688768 31.927785L216.471663 274.876096 45.578786 440.95298A32.526665 32.526665 0 0 0 36.059091 472.880765a30.767455 30.767455 0 0 0 25.377536 22.345707l234.024801 35.246578 104.317394 213.962323a36.406908 36.406908 0 0 0 28.546608 19.176634 30.343249 30.343249 0 0 0 28.197263-19.176634l104.317394-213.962323 237.20635-35.246578A30.742502 30.742502 0 0 0 823.411496 472.880765a28.983292 28.983292 0 0 0-9.507219-31.927785z m-283.370009 18.814811a29.544742 29.544742 0 0 0-25.377536 14.348164l-73.612322 154.610829-73.612322-154.610829a22.308277 22.308277 0 0 0-22.55781-14.348164l-167.499224-25.764313 121.946921-120.250095a40.461824 40.461824 0 0 0 8.496609-25.764313L270.083892 118.992647l150.131706 80.212477a20.923367 20.923367 0 0 0 25.377536 0l150.144184-80.212477-28.197262 168.958993a29.157965 29.157965 0 0 0 8.459178 25.764313l121.946921 120.250095zM246.814912 666.980239l-44.40445 130.967549-133.225826 44.791227 133.225826 44.841133 44.40445 134.386156 44.416926-134.386156 129.345584-44.841133-129.345584-44.791227-44.416926-130.967549zM567.190709 741.166487l-19.026914 60.649067-59.92542 22.345707 59.92542 19.176634 19.026914 60.698974 22.208463-60.698974 59.912944-19.176634-59.912944-22.345707-22.208463-60.649067z" fill="#bdbdbd" p-id="26344"></path></svg>