<?xml version="1.0" standalone="no"?><!DOCTYPE svg PUBLIC "-//W3C//DTD SVG 1.1//EN" "http://www.w3.org/Graphics/SVG/1.1/DTD/svg11.dtd"><svg t="1566988382115" class="icon" viewBox="0 0 1024 1024" version="1.1" xmlns="http://www.w3.org/2000/svg" p-id="2206" xmlns:xlink="http://www.w3.org/1999/xlink" width="128" height="128"><defs><style type="text/css"></style></defs><path d="M416 64H128c-35.2 0-64 28.8-64 64v768c0 35.2 28.8 64 64 64h288c35.2 0 64-28.8 64-64V128c0-35.2-28.8-64-64-64z m0 800c0 19.2-12.8 32-32 32H160c-19.2 0-32-12.8-32-32V160c0-19.2 12.8-32 32-32h224c19.2 0 32 12.8 32 32v704zM896 64H608c-35.2 0-64 28.8-64 64v768c0 35.2 28.8 64 64 64h288c35.2 0 64-28.8 64-64V128c0-35.2-28.8-64-64-64z m0 800c0 19.2-12.8 32-32 32H640c-19.2 0-32-12.8-32-32V160c0-19.2 12.8-32 32-32h224c19.2 0 32 12.8 32 32v704z" fill="#bdbdbd" p-id="2207"></path></svg>