<?xml version="1.0" standalone="no"?><!DOCTYPE svg PUBLIC "-//W3C//DTD SVG 1.1//EN" "http://www.w3.org/Graphics/SVG/1.1/DTD/svg11.dtd"><svg t="1565449051134" class="icon" viewBox="0 0 1024 1024" version="1.1" xmlns="http://www.w3.org/2000/svg" p-id="21773" xmlns:xlink="http://www.w3.org/1999/xlink" width="128" height="128"><defs><style type="text/css"></style></defs><path d="M963.982222 271.644444a56.888889 56.888889 0 0 0-76.231111 25.6 418.986667 418.986667 0 0 1-751.502222 0 56.888889 56.888889 0 1 0-101.831111 50.915556 548.693333 548.693333 0 0 0 90.168889 129.422222L61.724444 540.444444A56.888889 56.888889 0 0 0 142.222222 620.942222l69.12-69.12a525.653333 525.653333 0 0 0 111.502222 56.888889l-22.755555 85.333333a56.888889 56.888889 0 1 0 109.795555 28.444445l23.04-85.333333a559.502222 559.502222 0 0 0 79.075556 5.973333c17.351111 0 34.417778 0 51.484444-2.844445l22.186667 82.204445a56.888889 56.888889 0 1 0 109.795556-28.444445l-20.195556-75.377777a544.426667 544.426667 0 0 0 120.32-56.888889l56.888889 56.888889A56.888889 56.888889 0 0 0 933.831111 540.444444l-48.64-48.64a533.902222 533.902222 0 0 0 104.391111-142.222222 56.888889 56.888889 0 0 0-25.6-77.937778z" fill="#bdbdbd" p-id="21774"></path></svg>