<?xml version="1.0" standalone="no"?><!DOCTYPE svg PUBLIC "-//W3C//DTD SVG 1.1//EN" "http://www.w3.org/Graphics/SVG/1.1/DTD/svg11.dtd"><svg t="1565449105297" class="icon" viewBox="0 0 1024 1024" version="1.1" xmlns="http://www.w3.org/2000/svg" p-id="23406" xmlns:xlink="http://www.w3.org/1999/xlink" width="128" height="128"><defs><style type="text/css"></style></defs><path d="M509.953975 371.953149c-56.865371 0-106.534381 46.141381-106.53438 106.53438 0 56.865371 46.141381 106.534381 106.53438 106.534381s106.534381-46.141381 106.534381-106.534381-49.669009-106.534381-106.534381-106.53438z m-3.527628-142.092876c-177.510266 0-333.854761 85.227504-429.665151 241.430894 99.479124 156.20339 255.682513 255.682513 429.665151 255.682514 177.510266 0 333.854761-103.006752 429.665151-259.210142-95.81039-156.20339-252.01378-237.903266-429.665151-237.903266z m3.527628 426.137522C410.474852 655.997795 328.774976 574.297919 328.774976 474.818796s81.699876-181.179 181.178999-181.179S687.464241 378.867301 687.464241 478.346424c0.141105 99.479124-78.031142 177.651371-177.510266 177.651371z m0 0" fill="#1296DB" p-id="23407"></path></svg>