<?xml version="1.0" standalone="no"?><!DOCTYPE svg PUBLIC "-//W3C//DTD SVG 1.1//EN" "http://www.w3.org/Graphics/SVG/1.1/DTD/svg11.dtd"><svg t="1602921999090" class="icon" viewBox="0 0 1024 1024" version="1.1" xmlns="http://www.w3.org/2000/svg" p-id="10494" xmlns:xlink="http://www.w3.org/1999/xlink" width="256" height="256"><defs><style type="text/css"></style></defs><path d="M512 108.606061c17.066667 0 31.030303 13.963636 31.030303 31.030303v744.727272c0 17.066667-13.963636 31.030303-31.030303 31.030303s-31.030303-13.963636-31.030303-31.030303V139.636364c0-17.066667 13.963636-31.030303 31.030303-31.030303z m186.181818 155.151515c17.066667 0 31.030303 13.963636 31.030303 31.030303v434.424242c0 17.066667-13.963636 31.030303-31.030303 31.030303s-31.030303-13.963636-31.030303-31.030303V294.787879c0-17.066667 13.963636-31.030303 31.030303-31.030303z m-372.363636-15.515152c17.066667 0 31.030303 13.963636 31.030303 31.030303v434.424243c0 17.066667-13.963636 31.030303-31.030303 31.030303s-31.030303-13.963636-31.030303-31.030303V279.272727c0-17.066667 13.963636-31.030303 31.030303-31.030303z m558.545454 139.636364c17.066667 0 31.030303 13.963636 31.030303 31.030303v186.181818c0 17.066667-13.963636 31.030303-31.030303 31.030303s-31.030303-13.963636-31.030303-31.030303V418.909091c0-17.066667 13.963636-31.030303 31.030303-31.030303zM139.636364 387.878788c17.066667 0 31.030303 13.963636 31.030303 31.030303v186.181818c0 17.066667-13.963636 31.030303-31.030303 31.030303s-31.030303-13.963636-31.030303-31.030303V418.909091c0-17.066667 13.963636-31.030303 31.030303-31.030303z" fill="#bdbdbd" p-id="10495"></path></svg>