<?xml version="1.0" standalone="no"?><!DOCTYPE svg PUBLIC "-//W3C//DTD SVG 1.1//EN" "http://www.w3.org/Graphics/SVG/1.1/DTD/svg11.dtd"><svg t="1565449297583" class="icon" viewBox="0 0 1024 1024" version="1.1" xmlns="http://www.w3.org/2000/svg" p-id="25223" xmlns:xlink="http://www.w3.org/1999/xlink" width="128" height="128"><defs><style type="text/css"></style></defs><path d="M559.653 766.63c-12.926 12.962-28.56 19.407-46.73 19.407-18.171 0-34.182-6.445-47.176-19.407-13.44-13.026-19.886-28.592-19.886-47.175 0-18.172 6.446-34.25 19.886-47.177 12.994-13.473 29.005-19.953 47.177-19.953 18.17 0 33.77 6.479 46.729 19.953 13.474 12.927 19.92 29.005 19.92 47.177 0 18.583-6.446 34.149-19.92 47.175zM464.924 321.65c12.514-13.407 28.595-20.331 48-20.331 19.473 0 35.518 6.48 48.067 20.33 12.136 13.406 18.581 30.309 18.581 50.674 0 17.28-25.987 145.848-35.005 239.342h-62.774c-7.372-93.53-35.93-222.097-35.93-239.342 0-19.92 6.48-36.823 19.061-50.673z m475.223 437.164l-349.74-610.27c-42.822-74.432-112.557-74.432-155.344 0l-349.74 610.27c-42.788 74.399-7.817 135.427 77.895 135.427h699.446c85.267 0 120.339-61.027 77.483-135.427z" fill="#FFE214" p-id="25224"></path></svg>