<?xml version="1.0" standalone="no"?><!DOCTYPE svg PUBLIC "-//W3C//DTD SVG 1.1//EN" "http://www.w3.org/Graphics/SVG/1.1/DTD/svg11.dtd"><svg t="1565511533516" class="icon" viewBox="0 0 1024 1024" version="1.1" xmlns="http://www.w3.org/2000/svg" p-id="49354" xmlns:xlink="http://www.w3.org/1999/xlink" width="128" height="128"><defs><style type="text/css"></style></defs><path d="M165.865 526.116c22.393-2.363 41.298 16.43 39.048 38.822-1.8 16.429-14.967 29.595-31.283 31.283-22.506 2.363-41.298-16.542-38.935-38.935 1.688-16.316 14.854-29.482 31.17-31.17z m68.642-57.614c-32.07 2.813-58.852-23.968-55.926-55.926 2.25-24.644 22.055-44.449 46.586-46.587 32.07-2.925 58.74 23.856 55.927 55.927-2.25 24.643-22.056 44.448-46.587 46.586zM403.75 235.795c38.822-2.475 70.892 29.595 68.529 68.53-2.026 32.07-28.02 58.064-60.09 60.09-38.822 2.475-71.005-29.708-68.53-68.53 2.026-32.07 28.02-58.064 60.09-60.09z m231.919-14.74c47.824-3.04 87.321 36.458 84.17 84.17-2.475 39.384-34.32 71.342-73.818 73.818-47.711 3.15-87.209-36.46-84.17-84.17 2.475-39.386 34.32-71.343 73.818-73.819z m387.77 25.43c0.562 8.552-2.139 16.88-7.765 23.406L630.491 713.249l-87.771 61.103-1.688-1.463-12.49 6.639 5.513-12.716-1.237-1.012 48.949-96.211 384.394-442.571c6.076-7.09 14.966-11.14 24.306-11.14a32.396 32.396 0 0 1 21.155 7.877l0.788 0.675c6.526 5.626 10.465 13.503 11.027 22.055z m-110.728 248.1c4.17-14.987 18.705-24.903 34.255-23.325 20.058 2.028 33.354 21.635 27.946 41.129-10.255 35.945-27.946 91.047-49.355 134.204-30.65 61.638-84.85 145.586-169.25 195.617-88.342 52.397-174.319 78.99-255.45 78.99-67.947 0-118.541-19.043-148.966-34.931-33.354-17.466-61.299-41.017-74.933-62.99-10.705-17.128-20.17-35.157-28.622-51.045-10.48-19.72-19.494-36.622-26.705-44.96-2.48-2.93-7.888-4.282-16.227-4.282-7.662 0-55.44 5.634-71.102 5.634-42.256 0-75.046-13.86-100.287-42.143-15.212-16.902-25.58-43.157-30.312-76.06-4.958-34.256-5.747-59.384 2.705-98.936 13.86-64.905 49.242-132.176 90.258-190.095 49.806-70.426 114.147-126.767 202.152-166.206C375.892 120.48 466.827 102 543.563 102c73.807 0 145.247 15.776 213.195 47.214 32.001 14.761 70.99 37.298 97.244 53.073 15.663 9.466 19.382 30.65 7.663 44.848-9.916 12.057-27.382 14.31-40.228 5.521-72.905-50.03-188.066-86.99-284.522-86.99-45.186 0-91.611 9.352-136.684 21.296-126.88 33.016-233.703 121.021-293.2 241.366-38.424 77.863-50.256 158.994-30.198 206.66 7.55 17.916 25.917 25.24 63.215 25.24 8.676 0 45.523-1.465 54.65-1.465 23.326 0 49.468 2.028 67.385 16.902 14.76 12.283 36.621 52.172 56.003 87.216 4.507 8.226 8.789 15.889 12.62 22.762 9.578 17.015 31.551 32.903 61.863 44.735 33.24 13.071 72.905 19.945 114.597 19.945 52.398 0 131.839-11.043 213.195-63.891 79.667-51.721 127.106-127.33 152.797-181.644 17.804-37.523 31.777-82.483 39.552-110.203z" fill="#bdbdbd" p-id="49355"></path></svg>