<?xml version="1.0" standalone="no"?><!DOCTYPE svg PUBLIC "-//W3C//DTD SVG 1.1//EN" "http://www.w3.org/Graphics/SVG/1.1/DTD/svg11.dtd"><svg t="1566520890863" class="icon" viewBox="0 0 1024 1024" version="1.1" xmlns="http://www.w3.org/2000/svg" p-id="34645" xmlns:xlink="http://www.w3.org/1999/xlink" width="128" height="128"><defs><style type="text/css"></style></defs><path d="M0 384C0 596.114286 171.885714 768 384 768S768 596.114286 768 384 596.114286 0 384 0 0 171.885714 0 384z m0 0" p-id="34646" fill="#bdbdbd"></path><path d="M640 314.514286c179.2 0 325.485714 146.285714 325.485714 325.485714s-146.285714 325.485714-325.485714 325.485714-325.485714-146.285714-325.485714-325.485714 146.285714-325.485714 325.485714-325.485714m0-58.514286C427.885714 256 256 427.885714 256 640S427.885714 1024 640 1024 1024 852.114286 1024 640 852.114286 256 640 256z" p-id="34647" fill="#bdbdbd"></path></svg>