<?xml version="1.0" standalone="no"?><!DOCTYPE svg PUBLIC "-//W3C//DTD SVG 1.1//EN" "http://www.w3.org/Graphics/SVG/1.1/DTD/svg11.dtd"><svg t="1566520775211" class="icon" viewBox="0 0 1024 1024" version="1.1" xmlns="http://www.w3.org/2000/svg" p-id="25395" xmlns:xlink="http://www.w3.org/1999/xlink" width="128" height="128"><defs><style type="text/css"></style></defs><path d="M247.035019 996.108949c-111.564202 0-199.22179-87.657588-199.221789-199.221789s87.657588-199.22179 199.221789-199.22179 199.22179 87.657588 199.22179 199.22179-87.657588 199.22179-199.22179 199.221789z m0-318.754863c-67.735409 0-119.533074 51.797665-119.533073 119.533074s51.797665 119.533074 119.533073 119.533073 119.533074-51.797665 119.533074-119.533073-51.797665-119.533074-119.533074-119.533074zM753.058366 1024L697.276265 968.217899l171.330739-171.330739-171.330739-171.33074 55.782101-55.782101 227.11284 227.112841z" fill="#bdbdbd" p-id="25396"></path><path d="M406.412451 757.042802h482.116732c19.922179 0 35.859922 15.937743 35.859922 39.844358s-15.937743 39.844358-35.859922 39.844358H406.412451c-19.922179 0-35.859922-15.937743-35.859922-39.844358s15.937743-39.844358 35.859922-39.844358z" fill="#bdbdbd" p-id="25397"></path><path d="M418.365759 306.801556L247.035019 135.470817 75.70428 306.801556 19.922179 251.019455 247.035019 23.906615l227.112841 227.11284z" fill="#bdbdbd" p-id="25398"></path><path d="M247.035019 79.688716c23.906615 0 39.844358 15.937743 39.844358 39.844358v517.976654c0 23.906615-15.937743 39.844358-39.844358 39.844358s-39.844358-15.937743-39.844358-39.844358V119.533074c0-23.906615 19.922179-39.844358 39.844358-39.844358z" fill="#bdbdbd" p-id="25399"></path></svg>