<?xml version="1.0" standalone="no"?><!DOCTYPE svg PUBLIC "-//W3C//DTD SVG 1.1//EN" "http://www.w3.org/Graphics/SVG/1.1/DTD/svg11.dtd"><svg t="1566533016148" class="icon" viewBox="0 0 1024 1024" version="1.1" xmlns="http://www.w3.org/2000/svg" p-id="1994" xmlns:xlink="http://www.w3.org/1999/xlink" width="128" height="128"><defs><style type="text/css"></style></defs><path d="M853.504 1024H170.496C76.8 1024 0 947.2 0 853.504V170.496C0 76.8 76.8 0 170.496 0h682.496C947.2 0 1024 76.8 1024 170.496v682.496c0 94.208-76.8 171.008-170.496 171.008z m84.992-853.504c0-47.104-38.4-85.504-85.504-85.504H170.496c-47.104 0-85.504 38.4-85.504 85.504v682.496c0 47.104 38.4 85.504 85.504 85.504h682.496c47.104 0 85.504-38.4 85.504-85.504V170.496zM725.504 384c-25.6 0-42.496-16.896-42.496-42.496h-128v341.504c25.6 0 42.496 16.896 42.496 42.496s-16.896 42.496-42.496 42.496H469.504c-25.6 0-42.496-16.896-42.496-42.496 0-25.6 16.896-42.496 42.496-42.496V341.504h-128c0 25.6-16.896 42.496-42.496 42.496-25.6 0-42.496-16.896-42.496-42.496v-42.496c0-25.6 16.896-42.496 42.496-42.496h426.496c25.6 0 42.496 16.896 42.496 42.496v42.496c0 25.6-16.896 42.496-42.496 42.496z" p-id="1995" fill="#bdbdbd"></path></svg>