<?xml version="1.0" standalone="no"?><!DOCTYPE svg PUBLIC "-//W3C//DTD SVG 1.1//EN" "http://www.w3.org/Graphics/SVG/1.1/DTD/svg11.dtd"><svg t="1566524433583" class="icon" viewBox="0 0 1024 1024" version="1.1" xmlns="http://www.w3.org/2000/svg" p-id="89165" xmlns:xlink="http://www.w3.org/1999/xlink" width="128" height="128"><defs><style type="text/css"></style></defs><path d="M901.944419 407.853183H286.83766l618.19992-209.781135a74.073771 74.073771 0 0 0 49.274456-91.849315L938.468029 52.923116a73.938699 73.938699 0 0 0-92.011402-49.841761l-0.499768 0.14858-745.600323 252.990834a74.073771 74.073771 0 0 0-49.274456 91.849315L66.980116 401.315673a73.88467 73.88467 0 0 0 24.650735 36.469581 73.58751 73.58751 0 0 0-14.506789 43.952598v468.215391a74.073771 74.073771 0 0 0 74.006235 74.046757h750.814122a74.073771 74.073771 0 0 0 73.992728-73.992728v-468.161362a74.073771 74.073771 0 0 0-73.992728-73.992727zM920.638456 481.84591v74.289888H703.833551l75.127337-93.024446h122.915995A18.721052 18.721052 0 0 1 920.638456 481.84591zM151.130297 463.138366h188.169531l-82.58334 82.58334a27.554795 27.554795 0 0 0-6.564525 10.441106H132.422753v-74.289887a18.721052 18.721052 0 0 1 18.707544-18.734559z m260.554896 5.808119a27.67636 27.67636 0 0 0 4.443886-5.808119h291.756648l-68.454755 84.758008a27.581809 27.581809 0 0 0-4.592465 8.266438H324.468865l87.216328-87.216327zM116.740833 309.047633l0.513276-0.14858L862.557272 55.962248a18.653515 18.653515 0 0 1 22.962329 12.710324l15.803485 53.313125a18.721052 18.721052 0 0 1-12.602267 23.259488l-0.499768 0.14858L142.850352 398.33057a18.640008 18.640008 0 0 1-22.854271-12.710324l-15.857514-53.313125a18.721052 18.721052 0 0 1 12.602266-23.259488z m785.203586 659.572633H151.130297a18.721052 18.721052 0 0 1-18.707544-18.707544V611.447995H920.638456v338.491741a18.721052 18.721052 0 0 1-18.694037 18.68053z" p-id="89166" fill="#bdbdbd"></path></svg>