<?xml version="1.0" standalone="no"?><!DOCTYPE svg PUBLIC "-//W3C//DTD SVG 1.1//EN" "http://www.w3.org/Graphics/SVG/1.1/DTD/svg11.dtd"><svg t="1567517060245" class="icon" viewBox="0 0 1024 1024" version="1.1" xmlns="http://www.w3.org/2000/svg" p-id="5338" xmlns:xlink="http://www.w3.org/1999/xlink" width="128" height="128"><defs><style type="text/css"></style></defs><path d="M865.706667 830.890667V191.658667l-47.146667 49.578666a28.586667 28.586667 0 0 1-41.898667 0 32.298667 32.298667 0 0 1 0-44.032l97.706667-102.741333a28.586667 28.586667 0 0 1 41.856 0l97.706667 102.741333a32.298667 32.298667 0 0 1 0 44.032 28.586667 28.586667 0 0 1-41.856 0l-47.189334-49.578666v642.133333l48.554667-51.029333a28.586667 28.586667 0 0 1 41.898667 0 32.298667 32.298667 0 0 1 0 44.032l-97.706667 102.741333a28.8 28.8 0 0 1-20.906667 9.130667 28.8 28.8 0 0 1-20.949333-9.130667l-97.706667-102.741333a32.298667 32.298667 0 0 1 0-44.032 28.586667 28.586667 0 0 1 41.856 0l45.781334 48.128zM64 85.333333h554.666667A64 64 0 0 1 682.666667 149.333333v109.312a21.333333 21.333333 0 0 1-37.376 14.08L598.613333 219.434667a153.6 153.6 0 0 0-120.576-52.224l-31.402666 1.066666a42.666667 42.666667 0 0 0-41.216 42.666667V798.72c0 31.274667 25.344 56.661333 56.618666 56.661333h15.018667a41.642667 41.642667 0 1 1 0 83.242667H206.08a41.514667 41.514667 0 0 1 0-83.029333h15.445333c31.445333 0 56.96-25.514667 56.96-57.002667V211.456a42.666667 42.666667 0 0 0-41.045333-42.666667l-31.701333-1.194666A153.557333 153.557333 0 0 0 84.821333 219.306667L37.333333 273.066667A21.333333 21.333333 0 0 1 0 258.986667V149.333333A64 64 0 0 1 64 85.333333z" p-id="5339" fill="#bdbdbd"></path></svg>