<?xml version="1.0" standalone="no"?><!DOCTYPE svg PUBLIC "-//W3C//DTD SVG 1.1//EN" "http://www.w3.org/Graphics/SVG/1.1/DTD/svg11.dtd"><svg t="1566522956142" class="icon" viewBox="0 0 1024 1024" version="1.1" xmlns="http://www.w3.org/2000/svg" p-id="63603" xmlns:xlink="http://www.w3.org/1999/xlink" width="128" height="128"><defs><style type="text/css"></style></defs><path d="M456.036919 791.8108 270.553461 791.8108 460.818829 601.572038l-39.593763-39.567157L231.314785 751.915162l0.873903-183.953615c0-15.465227-12.515035-27.981285-27.981285-27.981285s-27.981285 12.515035-27.981285 27.981285l0 251.829516c0 8.3072 3.415796 14.975063 8.826016 19.564591 5.082762 5.192256 12.132318 8.416693 19.947308 8.416693l251.036453 0c15.46625 0 27.981285-12.514012 27.981285-27.981285C484.018204 804.325835 471.504192 791.8108 456.036919 791.8108zM838.945819 184.644347c-5.082762-5.191232-12.132318-8.416693-19.947308-8.416693L567.961034 176.227654c-15.46625 0-27.981285 12.515035-27.981285 27.981285 0 15.46625 12.514012 27.981285 27.981285 27.981285l185.483458 0L563.206754 422.427962l39.567157 39.567157 189.910281-189.910281-0.873903 183.953615c0 15.46625 12.514012 27.981285 27.981285 27.981285s27.981285-12.514012 27.981285-27.981285L847.772858 204.208938C847.771835 195.902762 844.356039 189.234899 838.945819 184.644347zM847.771835 64.303538 176.227142 64.303538c-61.809741 0-111.924115 50.115398-111.924115 111.924115l0 671.544693c0 61.809741 50.114374 111.924115 111.924115 111.924115l671.544693 0c61.809741 0 111.924115-50.114374 111.924115-111.924115l0-671.544693C959.69595 114.418936 909.581576 64.303538 847.771835 64.303538zM903.733381 847.772346c0 30.878265-25.056676 55.962569-55.962569 55.962569L176.227142 903.734916c-30.90487 0-55.962569-25.084305-55.962569-55.962569l0-671.544693c0-30.9325 25.056676-55.962569 55.962569-55.962569l671.544693 0c30.90487 0 55.962569 25.03007 55.962569 55.962569L903.734404 847.772346z" p-id="63604" fill="#bdbdbd"></path></svg>