<?xml version="1.0" standalone="no"?><!DOCTYPE svg PUBLIC "-//W3C//DTD SVG 1.1//EN" "http://www.w3.org/Graphics/SVG/1.1/DTD/svg11.dtd"><svg t="1566535657218" class="icon" viewBox="0 0 1024 1024" version="1.1" xmlns="http://www.w3.org/2000/svg" p-id="11933" xmlns:xlink="http://www.w3.org/1999/xlink" width="128" height="128"><defs><style type="text/css"></style></defs><path d="M128.880811 344.05294c0-55.803957 15.441691-100.482529 46.432519-134.115534 30.942733-33.57877 72.878844-50.373271 125.760239-50.373271 50.477648 0 89.712231 15.258519 117.783567 45.736671 28.0171 30.523177 42.023092 72.693626 42.023092 126.412085 0 55.150064-15.537881 99.409081-46.667879 132.525316-31.118741 33.220612-72.640414 49.77873-124.597763 49.77873-48.747237 0-87.760786-15.536858-116.944456-46.668902C143.446551 436.223153 128.880811 395.123083 128.880811 344.05294zM225.740836 339.178933c0 63.132876 23.191188 94.728478 69.583798 94.728478 47.219441 0 70.879304-32.940227 70.879304-98.67537 0-63.691601-22.592554-95.558379-67.777663-95.558379C249.950214 239.673661 225.740836 272.842085 225.740836 339.178933zM782.81952 168.795381l-443.471231 682.512489-110.49865 0 442.544115-682.512489L782.81952 168.795381zM551.618834 690.155563c0-56.363705 15.682167-101.217263 47.12939-134.524856 31.361265-33.308617 73.204256-49.961902 125.480876-49.961902 50.475602 0 89.715301 14.984273 117.782543 44.905746 28.018124 29.919427 42.069141 72.082712 42.069141 126.403898 0 55.760978-15.775288 100.292194-47.12632 133.599787-31.41243 33.351596-72.967872 50.005904-124.602879 50.005904-48.425919 0-87.342254-15.631002-116.714212-46.8971C566.227554 782.421966 551.618834 741.271754 551.618834 690.155563zM648.057257 685.326581c0 63.420425 23.335475 95.095845 69.996191 95.095845 46.949288 0 70.466911-32.888038 70.466911-98.616018 0-30.801517-6.259564-54.555523-18.741853-71.113641-12.478196-16.610306-29.133527-24.914436-49.960879-24.914436C671.95248 585.77833 648.057257 618.996896 648.057257 685.326581z" p-id="11934" fill="#bdbdbd"></path></svg>