<?xml version="1.0" standalone="no"?><!DOCTYPE svg PUBLIC "-//W3C//DTD SVG 1.1//EN" "http://www.w3.org/Graphics/SVG/1.1/DTD/svg11.dtd"><svg t="1566271581068" class="icon" viewBox="0 0 1024 1024" version="1.1" xmlns="http://www.w3.org/2000/svg" p-id="130538" xmlns:xlink="http://www.w3.org/1999/xlink" width="128" height="128"><defs><style type="text/css"></style></defs><path d="M525.458 430.19L401.701 306.469a67.218 67.218 0 0 0-95.342-0.074 67.291 67.291 0 0 0 0.073 95.342L430.19 525.495 306.432 649.253a67.218 67.218 0 0 0-0.073 95.378 67.291 67.291 0 0 0 95.342-0.073L525.458 620.8l123.758 123.758a67.218 67.218 0 0 0 95.378 0.073 67.291 67.291 0 0 0-0.073-95.378L620.763 525.495l123.758-123.758a67.218 67.218 0 0 0 0.073-95.342 67.291 67.291 0 0 0-95.378 0.074L525.458 430.226zM512 1024C229.23 1024 0 794.77 0 512S229.23 0 512 0s512 229.23 512 512-229.23 512-512 512z" p-id="130539" fill="#bdbdbd"></path></svg>