<?xml version="1.0" standalone="no"?><!DOCTYPE svg PUBLIC "-//W3C//DTD SVG 1.1//EN" "http://www.w3.org/Graphics/SVG/1.1/DTD/svg11.dtd"><svg t="1565490808778" class="icon" viewBox="0 0 1024 1024" version="1.1" xmlns="http://www.w3.org/2000/svg" p-id="58485" xmlns:xlink="http://www.w3.org/1999/xlink" width="128" height="128"><defs><style type="text/css"></style></defs><path d="M317.952 695.296a54.016 54.016 0 0 1 0-76.8l588.8-588.8a53.76 53.76 0 1 1 76.8 76.8l-588.8 588.8a54.016 54.016 0 0 1-76.8 0zM107.776 107.776v808.448h808.448V484.864a54.016 54.016 0 0 1 107.776 0v486.4A53.76 53.76 0 0 1 970.496 1024H53.504A53.76 53.76 0 0 1 0 970.496V53.504A52.992 52.992 0 0 1 15.616 15.872 53.504 53.504 0 0 1 53.76 0h486.4a54.016 54.016 0 0 1 0 107.776z" fill="#bdbdbd" p-id="58486"></path></svg>