<?xml version="1.0" standalone="no"?><!DOCTYPE svg PUBLIC "-//W3C//DTD SVG 1.1//EN" "http://www.w3.org/Graphics/SVG/1.1/DTD/svg11.dtd"><svg t="1565440230601" class="icon" viewBox="0 0 1024 1024" version="1.1" xmlns="http://www.w3.org/2000/svg" p-id="21473" xmlns:xlink="http://www.w3.org/1999/xlink" width="128" height="128"><defs><style type="text/css"></style></defs><path d="M68.266667 273.068048 68.266667 273.068048 68.266667 750.931951C68.266667 863.890033 160.053205 955.733333 273.068048 955.733333L750.931951 955.733333C863.890033 955.733333 955.733333 863.946796 955.733333 750.931951L955.733333 273.068048C955.733333 160.109968 863.946796 68.266667 750.931951 68.266667L273.068048 68.266667C160.109968 68.266667 68.266667 160.053205 68.266667 273.068048L68.266667 273.068048ZM0 273.068048C0 122.25673 122.501211 0 273.068048 0L750.931951 0C901.743271 0 1024 122.501211 1024 273.068048L1024 750.931951C1024 901.743271 901.498788 1024 750.931951 1024L273.068048 1024C122.25673 1024 0 901.498788 0 750.931951L0 273.068048 0 273.068048Z" p-id="21474" fill="#bdbdbd"></path><path d="M828.461264 498.205327C828.461264 526.867132 821.823775 554.678801 808.548796 581.640332 795.27382 608.601863 777.21985 632.648632 754.386889 653.78064 731.553929 674.912652 705.136722 691.793971 675.135273 704.424598 645.133824 717.055225 613.406624 723.370537 579.953681 723.370537L548.890235 723.370537C536.677257 723.370537 523.535029 723.491987 509.463549 723.734883 495.392075 723.977779 481.453346 724.099226 467.647372 724.099226L430.211932 724.099226C414.812959 724.099226 402.59998 725.556606 393.572997 728.471368 384.54601 731.386129 380.298018 737.701441 380.829017 747.417308 380.829017 754.704208 380.696269 763.084142 380.430766 772.557113 380.16527 782.030083 380.032519 790.652915 380.032519 798.425608 380.032519 811.056234 376.315525 819.193273 368.881538 822.836723 361.44755 826.480173 351.624066 823.929758 339.411087 815.185479 326.667108 806.441198 312.064634 796.118089 295.603661 784.216153 279.142689 772.314216 262.150717 760.047934 244.627746 747.417308 227.104776 734.786679 209.847305 722.398952 192.855334 710.254118 175.863363 698.109283 160.729888 687.178933 147.45491 677.463067 135.241931 668.718787 129.002692 660.460302 128.737192 652.687606 128.471693 644.914913 133.914433 636.656428 145.065414 627.912148 156.747395 619.167867 170.420622 608.844759 186.085096 596.942821 201.749569 585.040886 218.077792 572.774601 235.069763 560.143974 252.061734 547.513351 268.788207 535.12562 285.249178 522.980785 301.710151 510.835954 316.312625 499.905604 329.056605 490.189735 342.862582 479.502281 354.411814 475.373039 363.704296 477.802004 372.996782 480.230973 377.643022 488.003666 377.643022 501.120085 377.643022 505.006432 377.775773 509.742916 378.041272 515.329543 378.306772 520.916166 378.572271 526.867132 378.83777 533.182447 379.10327 539.497759 379.368769 545.570174 379.634268 551.399697 379.899771 557.229216 380.032519 562.330047 380.032519 566.702186 380.032519 575.932259 383.085763 581.640332 389.192253 583.826401 395.298744 586.012471 403.661978 587.105505 414.28196 587.105505 438.176922 586.619713 464.992375 586.376817 494.728325 586.376817L577.564184 586.376817C589.777166 586.376817 601.990144 583.826401 614.203122 578.725571 626.416104 573.62474 637.567085 566.823636 647.656069 558.322251 657.74505 549.820867 665.975538 539.983555 672.347525 528.810308 678.719515 517.637059 681.90551 505.735124 681.90551 493.104497L681.90551 442.096196C681.90551 422.664462 681.772762 403.839969 681.50726 385.622719 681.24176 367.405469 681.109012 351.495738 681.109012 337.893526L681.109012 312.389373C681.109012 301.701922 684.693255 292.836192 691.861743 285.792188 699.030231 278.748187 708.057218 273.404457 718.9427 269.76101 729.828178 266.11756 741.642909 264.295834 754.386889 264.295834 767.130866 264.295834 778.945597 265.996111 789.831079 269.396664 800.716561 272.797218 809.743544 277.776599 816.912032 284.33481 824.080521 290.893018 827.664766 299.030057 827.664766 308.745926L827.664766 328.420553 827.664766 362.668984C827.664766 375.299611 827.797514 388.780377 828.063014 403.111281 828.328513 417.442185 828.461264 431.165846 828.461264 444.282266L828.461264 477.802004 828.461264 498.205327 828.461264 498.205327Z" p-id="21475" fill="#bdbdbd"></path></svg>