<?xml version="1.0" standalone="no"?><!DOCTYPE svg PUBLIC "-//W3C//DTD SVG 1.1//EN" "http://www.w3.org/Graphics/SVG/1.1/DTD/svg11.dtd"><svg t="1565440015467" class="icon" viewBox="0 0 1024 1024" version="1.1" xmlns="http://www.w3.org/2000/svg" p-id="10248" xmlns:xlink="http://www.w3.org/1999/xlink" width="128" height="128"><defs><style type="text/css"></style></defs><path d="M934.468 245.683L529.877 65.926a44.959 44.959 0 0 0-36.572 0L88.713 245.683a44.959 44.959 0 0 0 0 82.145l404.593 179.835a45.083 45.083 0 0 0 36.531 0l404.59-179.836a44.959 44.959 0 0 0 0-82.145z" p-id="10249" fill="#bdbdbd"></path><path d="M511.591 736.345c-6.3 0-12.518-1.31-18.246-3.886L88.755 552.663a45 45 0 0 1 36.49-82.226l386.346 171.736 386.346-171.696a45 45 0 0 1 36.531 82.228L529.877 732.5a45.399 45.399 0 0 1-18.286 3.845z" p-id="10250" fill="#bdbdbd"></path><path d="M511.591 961.141c-6.3 0-12.518-1.35-18.246-3.886L88.755 777.418a45 45 0 0 1 36.49-82.186l386.346 171.736 386.346-171.695a45 45 0 0 1 36.531 82.187L529.877 957.254a44.764 44.764 0 0 1-18.286 3.886z" p-id="10251" fill="#bdbdbd"></path></svg>