<?xml version="1.0" standalone="no"?><!DOCTYPE svg PUBLIC "-//W3C//DTD SVG 1.1//EN" "http://www.w3.org/Graphics/SVG/1.1/DTD/svg11.dtd"><svg t="1585103454080" class="icon" viewBox="0 0 1024 1024" version="1.1" xmlns="http://www.w3.org/2000/svg" p-id="5177" xmlns:xlink="http://www.w3.org/1999/xlink" width="128" height="128"><defs><style type="text/css"></style></defs><path d="M651.753683 625.809917l-253.741602-253.430099-63.4354 63.36865 253.741602 253.430099 63.4354-63.36865z m307.520403 9.656599l-128.851071-128.69532 190.306201-190.083699-63.4354-63.346399-190.306201 190.061449-190.306202-190.061449 190.306202-190.083699-63.435401-63.36865-190.306201 190.083699-124.890531-124.734779L324.897831 1.869019 261.462431 65.215419l63.457651 63.3909-257.212638 256.901134c-68.152449 68.063448-66.617183 179.959845 3.448786 249.936813l126.893051 126.737299-148.431272 148.275521 63.4354 63.346399 148.431272-148.25327 126.181044 126.025292c69.954717 69.865716 181.784364 71.534484 249.981313 3.715788l258.035896-256.611881 63.591152 63.524402 63.435401-63.36865-63.435401-63.36865z m-384.928947 256.322628c-33.063839 32.885837-88.355656 31.283821-123.244013-3.560036L134.59163 572.097866c-34.977359-34.932858-36.512624-90.202425-3.448785-123.244013l257.212637-256.901135 443.892052 443.380297-257.902395 256.456129z" p-id="5178" fill="#bdbdbd"></path></svg>