<?xml version="1.0" standalone="no"?><!DOCTYPE svg PUBLIC "-//W3C//DTD SVG 1.1//EN" "http://www.w3.org/Graphics/SVG/1.1/DTD/svg11.dtd"><svg t="1565440442366" class="icon" viewBox="0 0 1024 1024" version="1.1" xmlns="http://www.w3.org/2000/svg" p-id="25271" xmlns:xlink="http://www.w3.org/1999/xlink" width="128" height="128"><defs><style type="text/css"></style></defs><path d="M512 938.666667a426.666667 426.666667 0 1 1 426.666667-426.666667 426.666667 426.666667 0 0 1-426.666667 426.666667z m0-789.333334a362.666667 362.666667 0 1 0 362.666667 362.666667A362.666667 362.666667 0 0 0 512 149.333333z" p-id="25272" fill="#bdbdbd"></path><path d="M500.053333 579.84a32 32 0 0 1-32-32v-203.306667a32 32 0 0 1 64 0v203.306667a32 32 0 0 1-32 32z" p-id="25273" fill="#bdbdbd"></path><path d="M704 579.84h-203.946667a32 32 0 0 1 0-64H704a32 32 0 0 1 0 64z" p-id="25274" fill="#bdbdbd"></path></svg>