<?xml version="1.0" standalone="no"?><!DOCTYPE svg PUBLIC "-//W3C//DTD SVG 1.1//EN" "http://www.w3.org/Graphics/SVG/1.1/DTD/svg11.dtd"><svg t="1565440133761" class="icon" viewBox="0 0 1024 1024" version="1.1" xmlns="http://www.w3.org/2000/svg" p-id="19174" xmlns:xlink="http://www.w3.org/1999/xlink" width="128" height="128"><defs><style type="text/css"></style></defs><path d="M910.222222 1024h-227.555555v-113.777778h227.555555v-227.555555h113.777778v341.333333h-113.777778z m0-1024h113.777778v341.333333h-113.777778V113.777778h-227.555555V0h227.555555zM113.777778 910.222222h227.555555v113.777778H0v-341.333333h113.777778v227.555555zM113.777778 0h227.555555v113.777778H113.777778v227.555555H0V0h113.777778z m398.222222 796.444444c-167.594667 0-319.260444-94.833778-455.111111-284.444444 135.850667-189.610667 287.516444-284.444444 455.111111-284.444444 167.594667 0 319.260444 94.833778 455.111111 284.444444-135.850667 189.610667-287.516444 284.444444-455.111111 284.444444z m0-455.111111c-108.088889 0-210.887111 54.328889-310.840889 170.666667C301.112889 628.337778 403.968 682.666667 512 682.666667c108.088889 0 210.887111-54.328889 310.840889-170.666667C722.887111 395.662222 620.032 341.333333 512 341.333333z m0 284.444445a113.777778 113.777778 0 1 1 0-227.555556 113.777778 113.777778 0 0 1 0 227.555556z" p-id="19175" fill="#bdbdbd"></path></svg>