<?xml version="1.0" standalone="no"?><!DOCTYPE svg PUBLIC "-//W3C//DTD SVG 1.1//EN" "http://www.w3.org/Graphics/SVG/1.1/DTD/svg11.dtd"><svg t="1565439821680" class="icon" viewBox="0 0 1133 1024" version="1.1" xmlns="http://www.w3.org/2000/svg" p-id="8130" width="141.625" height="128" xmlns:xlink="http://www.w3.org/1999/xlink"><defs><style type="text/css"></style></defs><path d="M1108.793511 316.235162L586.337061 5.665195a42.081984 42.081984 0 0 0-21.040993-5.66015 41.097611 41.097611 0 0 0-21.040992 5.414056L21.675579 316.235162A43.066358 43.066358 0 0 0 5.310363 374.313222a42.328078 42.328078 0 0 0 57.585874 16.488263L551.883974 99.549856a25.962862 25.962862 0 0 1 26.701142 0l489.110784 291.374676a42.328078 42.328078 0 0 0 57.585874-16.488263 43.189405 43.189405 0 0 0-16.365216-58.07806z m0 0" p-id="8131" fill="#bdbdbd"></path><path d="M973.442099 399.168664l-375.784738-221.484129a63.492117 63.492117 0 0 0-64.599538 0l-375.784738 221.484129a64.845631 64.845631 0 0 0-31.992152 56.109312v502.399832a64.476491 64.476491 0 0 0 64.230397 64.722584h751.44643a64.476491 64.476491 0 0 0 64.230397-64.722584V455.277976a64.722584 64.722584 0 0 0-31.746058-56.109312zM412.225926 909.32044a16.242169 16.242169 0 0 1-16.119123 16.242169h-147.656085a16.242169 16.242169 0 0 1-16.119123-16.242169V760.926074a16.242169 16.242169 0 0 1 16.119123-16.24217h147.656085a16.242169 16.242169 0 0 1 16.119123 16.24217z m0-237.111064a16.242169 16.242169 0 0 1-16.119123 16.242169h-147.656085a16.242169 16.242169 0 0 1-16.119123-16.242169V523.691963a16.242169 16.242169 0 0 1 16.119123-16.24217h147.656085a16.242169 16.242169 0 0 1 16.119123 16.24217z m233.788803 237.111064a16.242169 16.242169 0 0 1-16.119123 16.242169h-147.656086a16.242169 16.242169 0 0 1-15.873029-16.242169V760.926074a16.242169 16.242169 0 0 1 16.119123-16.24217h147.656086a16.242169 16.242169 0 0 1 16.119122 16.24217z m0-237.111064a16.242169 16.242169 0 0 1-16.119123 16.242169h-147.656086a16.242169 16.242169 0 0 1-16.119122-16.242169V523.691963a16.242169 16.242169 0 0 1 16.119122-16.24217h147.656086a16.242169 16.242169 0 0 1 16.119123 16.24217z m229.35912 237.111064a16.242169 16.242169 0 0 1-16.119123 16.242169h-147.656086a16.242169 16.242169 0 0 1-16.119123-16.242169V760.926074a16.242169 16.242169 0 0 1 16.119123-16.24217h147.656086a16.242169 16.242169 0 0 1 16.119123 16.24217z" p-id="8132" fill="#bdbdbd"></path></svg>