<?xml version="1.0" standalone="no"?><!DOCTYPE svg PUBLIC "-//W3C//DTD SVG 1.1//EN" "http://www.w3.org/Graphics/SVG/1.1/DTD/svg11.dtd"><svg t="1565440279503" class="icon" viewBox="0 0 1024 1024" version="1.1" xmlns="http://www.w3.org/2000/svg" p-id="22550" xmlns:xlink="http://www.w3.org/1999/xlink" width="128" height="128"><defs><style type="text/css"></style></defs><path d="M249.03 376.609a25.733 25.733 0 0 1-32.308 13.223 25.02 25.02 0 0 1-13.26-32.345c7.4-16.905 16.228-33.172 26.484-48.537a281.436 281.436 0 0 1 36.74-43.39 288.252 288.252 0 0 1 90.462-61.76 25.02 25.02 0 0 1 19.122 45.569 163.98 163.98 0 0 0-40.46 22.052 225.778 225.778 0 0 0-36.027 28.701 303.89 303.89 0 0 0-29.415 36.027 225.027 225.027 0 0 0-21.3 40.46z m564.033 378.676l176.453 176.49a41.174 41.174 0 0 1-57.328 58.83L754.947 813.365a445.621 445.621 0 0 1-455.877 69.123 452.233 452.233 0 0 1-241.933-241.18A441.188 441.188 0 0 1 24.003 472.93a441.188 441.188 0 0 1 130.17-318.42A444.87 444.87 0 0 1 470.376 23.629a453.303 453.303 0 0 1 170.592 33.81 441.188 441.188 0 0 1 147.075 97.074 448.551 448.551 0 0 1 94.143 144.859 456.291 456.291 0 0 1 33.06 168.413 444.87 444.87 0 0 1-34.562 171.306A450.768 450.768 0 0 1 811.56 753.07l1.503 2.254zM609.374 132.46a367.67 367.67 0 0 0-397.084 79.417 380.18 380.18 0 0 0-79.417 118.374A374.281 374.281 0 0 0 105.674 470a361.771 361.771 0 0 0 26.447 137.495 372.065 372.065 0 0 0 79.417 118.374 359.592 359.592 0 0 0 119.126 80.882 372.816 372.816 0 0 0 139.75 26.485 361.02 361.02 0 0 0 138.96-26.485 350.764 350.764 0 0 0 117.66-78.665 367.67 367.67 0 0 0 107.292-257.41 377.211 377.211 0 0 0-26.447-137.496 367.67 367.67 0 0 0-73.557-116.195 367.67 367.67 0 0 0-124.986-84.564z m98.538 337.503a24.268 24.268 0 0 1 24.983-24.982c13.824 0 25.02 11.195 25.02 24.982a294.15 294.15 0 0 1-22.09 111.048 285.322 285.322 0 0 1-155.152 152.222C545.848 748.26 508.318 756 470.376 756.037a25.02 25.02 0 0 1-24.982-22.804 24.268 24.268 0 0 1 24.982-25.02 233.104 233.104 0 0 0 90.461-16.905 239.716 239.716 0 0 0 77.2-51.467 234.57 234.57 0 0 0 51.468-73.518 234.932 234.932 0 0 0 18.407-96.36z" p-id="22551" fill="#bdbdbd"></path></svg>