<?xml version="1.0" standalone="no"?><!DOCTYPE svg PUBLIC "-//W3C//DTD SVG 1.1//EN" "http://www.w3.org/Graphics/SVG/1.1/DTD/svg11.dtd"><svg t="1565440568824" class="icon" viewBox="0 0 1024 1024" version="1.1" xmlns="http://www.w3.org/2000/svg" p-id="27392" xmlns:xlink="http://www.w3.org/1999/xlink" width="128" height="128"><defs><style type="text/css"></style></defs><path d="M904.139122 792.095279 680.059624 792.095279 680.059624 904.135028l56.019875 0 0 56.038294L287.919479 960.173322 287.919479 904.135028l56.019875 0L343.939353 792.095279 119.865995 792.095279c-30.94171 0-56.026014-25.064862-56.026014-56.038294L63.83998 119.836319c0-30.936593 25.084305-56.010665 56.026014-56.010665l784.27415 0c30.937616 0 56.019875 25.074072 56.019875 56.010665l0 616.219643C960.16002 767.029394 935.077761 792.095279 904.139122 792.095279zM399.956158 904.135028l224.083591 0L624.039749 792.095279l-224.083591 0L399.956158 904.135028zM904.139122 147.865699c0-15.491833-12.540617-28.028357-28.009937-28.028357L147.869792 119.837342c-15.47239 0-28.004821 12.537548-28.004821 28.028357l0 420.140872 784.27415 0L904.139122 147.865699zM904.139122 624.016213 119.865995 624.016213l0 84.067674c0 15.435551 12.531408 27.973098 28.004821 27.973098l196.069561 0 336.12027 0 196.069561 0c15.46932 0 28.009937-12.537548 28.009937-27.973098L904.140145 624.016213z" p-id="27393" fill="#bdbdbd"></path></svg>