<?xml version="1.0" standalone="no"?><!DOCTYPE svg PUBLIC "-//W3C//DTD SVG 1.1//EN" "http://www.w3.org/Graphics/SVG/1.1/DTD/svg11.dtd"><svg t="1566496152683" class="icon" viewBox="0 0 1024 1024" version="1.1" xmlns="http://www.w3.org/2000/svg" p-id="287104" xmlns:xlink="http://www.w3.org/1999/xlink" width="128" height="128"><defs><style type="text/css"></style></defs><path d="M272.516129 256v-132.129032A57.806452 57.806452 0 0 1 330.322581 66.064516h363.354838a57.806452 57.806452 0 0 1 57.806452 57.806452v132.129032H941.419355a33.032258 33.032258 0 0 1 33.032258 33.032258v181.677419H776.258065v-66.064516a16.516129 16.516129 0 0 0-16.51613-16.516129h-49.548387a16.516129 16.516129 0 0 0-16.516129 16.516129v66.064516H330.322581v-66.064516a16.516129 16.516129 0 0 0-16.516129-16.516129h-49.548387a16.516129 16.516129 0 0 0-16.51613 16.516129v66.064516H49.548387v-181.677419a33.032258 33.032258 0 0 1 33.032258-33.032258h189.935484z m82.580645 0h313.806452V148.645161h-313.806452v107.354839z m421.161291 264.258065h198.193548v412.903225a33.032258 33.032258 0 0 1-33.032258 33.032258H82.580645a33.032258 33.032258 0 0 1-33.032258-33.032258v-412.903225h198.193548v66.064516a16.516129 16.516129 0 0 0 16.51613 16.516129h49.548387a16.516129 16.516129 0 0 0 16.516129-16.516129v-66.064516h363.354838v66.064516a16.516129 16.516129 0 0 0 16.516129 16.516129h49.548387a16.516129 16.516129 0 0 0 16.51613-16.516129v-66.064516z" fill="#519ACF" p-id="287105"></path></svg>