<?xml version="1.0" standalone="no"?><!DOCTYPE svg PUBLIC "-//W3C//DTD SVG 1.1//EN" "http://www.w3.org/Graphics/SVG/1.1/DTD/svg11.dtd"><svg t="1566518456718" class="icon" viewBox="0 0 1024 1024" version="1.1" xmlns="http://www.w3.org/2000/svg" p-id="17464" xmlns:xlink="http://www.w3.org/1999/xlink" width="128" height="128"><defs><style type="text/css"></style></defs><path d="M0 128l0 768 1024 0L1024 128 0 128zM944 816 80 816 80 208l864 0L944 816zM704 368c0 53.024 42.976 96 96 96 53.024 0 96-42.976 96-96 0-53.024-42.976-96-96-96C746.976 272 704 314.976 704 368M888 760l-192-288-128 96-240-304-192 496L888 760z" p-id="17465" fill="#91AFCF"></path></svg>