<?xml version="1.0" standalone="no"?><!DOCTYPE svg PUBLIC "-//W3C//DTD SVG 1.1//EN" "http://www.w3.org/Graphics/SVG/1.1/DTD/svg11.dtd"><svg t="1586172836766" class="icon" viewBox="0 0 1024 1024" version="1.1" xmlns="http://www.w3.org/2000/svg" p-id="4919" width="128" height="128" xmlns:xlink="http://www.w3.org/1999/xlink"><defs><style type="text/css"></style></defs><path d="M1.536 171.52l652.288 113.664 368.64-169.984L455.168 1.536zM2.048 228.352v624.128l623.616 169.984V342.016L2.048 228.352z m385.536 568.32c-27.136 10.752-62.976 8.192-107.52-8.192-39.936-14.336-72.192-32.768-96.256-54.784v-71.168c26.112 28.672 55.808 49.664 90.624 61.952 22.016 8.192 39.424 9.216 52.224 4.608 12.8-5.12 19.456-16.384 19.456-34.304 0-18.432-7.68-35.328-23.04-50.176-15.36-15.36-36.864-27.648-64-37.888l-34.304-12.8v-62.464l31.744 11.776c52.224 18.944 77.824 10.752 77.824-24.064 0-33.28-19.968-56.832-59.904-71.168-26.112-9.728-51.2-10.24-75.776-2.048V378.368c26.624-4.096 58.368 0.512 94.208 13.312 36.864 13.312 66.56 32.768 89.088 57.856 23.04 25.088 34.304 52.736 34.304 82.944 0 50.688-25.6 73.216-77.312 67.584v1.024c27.136 12.8 48.64 30.72 65.024 53.248 16.384 22.528 24.064 46.08 24.064 70.144 0 37.376-13.824 60.928-40.448 72.192zM681.984 342.016v680.448l340.48-226.816V172.032l-340.48 169.984z m244.736 326.144c-24.576 49.664-56.32 85.504-95.232 107.52l-84.992 48.128v-384l85.504-48.128c88.064-49.664 132.096-12.288 132.096 112.64 0 59.392-12.8 114.176-37.376 163.84z" fill="#bdbdbd" p-id="4920"></path><path d="M885.76 460.288c-14.848-12.8-34.304-12.8-58.368 0.512l-28.672 16.384V727.04l28.672-16.384c25.088-14.336 44.544-36.864 58.88-68.096 14.336-31.232 21.504-66.56 21.504-105.984 0.512-37.888-6.656-63.488-22.016-76.288z" fill="#bdbdbd" p-id="4921"></path></svg>