<?xml version="1.0" standalone="no"?><!DOCTYPE svg PUBLIC "-//W3C//DTD SVG 1.1//EN" "http://www.w3.org/Graphics/SVG/1.1/DTD/svg11.dtd"><svg t="1585989375049" class="icon" viewBox="0 0 1024 1024" version="1.1" xmlns="http://www.w3.org/2000/svg" p-id="11157" width="64" height="64" xmlns:xlink="http://www.w3.org/1999/xlink"><defs><style type="text/css"></style></defs><path d="M700.7744 630.3744h200.533333c20.599467 0 37.358933 16.6912 37.358934 37.205333v199.799467c0 20.514133-16.759467 37.205333-37.358934 37.205333h-200.533333a37.3248 37.3248 0 0 1-37.358933-37.205333v-65.570133h-71.236267c-61.3888 0-111.36-49.7664-111.36-110.9504V545.262933h-120.251733v74.001067c0 20.514133-16.7424 37.205333-37.358934 37.205333H122.6752A37.307733 37.307733 0 0 1 85.333333 619.264V419.464533c0-20.514133 16.7424-37.205333 37.341867-37.205333h200.533333c20.616533 0 37.358933 16.6912 37.358934 37.205333v74.001067h120.251733v-145.595733c0-61.184 49.9712-110.933333 111.36-110.933334h71.236267V156.603733c0-20.514133 16.759467-37.205333 37.358933-37.205333h200.533333c20.599467 0 37.358933 16.6912 37.358934 37.205333v199.799467c0 20.5312-16.759467 37.205333-37.358934 37.205333h-200.533333a37.307733 37.307733 0 0 1-37.358933-37.205333v-67.259733h-71.236267a58.914133 58.914133 0 0 0-58.948267 58.7264V690.858667a58.914133 58.914133 0 0 0 58.948267 58.743466h71.236267v-82.0224c0-20.514133 16.759467-37.205333 37.358933-37.205333z m15.0528 222.0032h170.427733v-169.796267h-170.427733v169.796267zM308.155733 434.4832H137.728v169.7792h170.427733v-169.7792z m407.671467-93.0816h170.427733v-169.796267h-170.427733v169.796267z m-550.8096 113.834667h115.8656c3.5328 0 6.434133 2.884267 6.434133 6.417066v115.438934c0 3.515733-2.901333 6.417067-6.434133 6.417066H165.0176a6.4512 6.4512 0 0 1-6.434133-6.417066V461.653333c0-3.5328 2.884267-6.417067 6.434133-6.417066z" fill="#2DA7E0" p-id="11158"></path></svg>