<?xml version="1.0" standalone="no"?><!DOCTYPE svg PUBLIC "-//W3C//DTD SVG 1.1//EN" "http://www.w3.org/Graphics/SVG/1.1/DTD/svg11.dtd"><svg t="1566260835657" class="icon" viewBox="0 0 1024 1024" version="1.1" xmlns="http://www.w3.org/2000/svg" p-id="52956" xmlns:xlink="http://www.w3.org/1999/xlink" width="128" height="128"><defs><style type="text/css"></style></defs><path d="M611.94752 725.03808s8.83712-189.80864 5.63712-287.6672c-1.26464-38.69696 0-83.85536 0-83.85536-3.1744-22.95296 29.51168-12.30336 31.05792-12.16 44.1088 4.10624 174.94016 93.34272 199.9104 111.49824a39.7312 39.7312 0 0 0 30.60224 7.02464c19.6608-3.55328 33.1776-20.1216 32.15872-39.40352-9.67168-182.16448-157.86496-334.72-344.6784-354.816a404.70016 404.70016 0 0 0-51.61984-2.18112c-21.94432 0.5632-38.08768 14.26432-43.02336 34.99008-2.02752 8.61696-1.6896 16.39936-0.9984 23.44448l18.88768 471.83872c-59.21792-20.02944-127.62112-21.632-190.52544-3.57376-88.48384 25.46688-151.53152 63.81568-176.34304 134.86592-19.21024 55.17824-8.30976 104.4992 29.02528 154.10176 17.65888 23.38816 48.3072 47.43168 76.53376 58.35776 138.84928 53.74976 277.02272-5.7856 320.10752-46.55104 63.26784-59.88352 64.39936-140.59008 63.26784-165.9136z" fill="#5AC4FA" p-id="52957"></path></svg>