<?xml version="1.0" standalone="no"?><!DOCTYPE svg PUBLIC "-//W3C//DTD SVG 1.1//EN" "http://www.w3.org/Graphics/SVG/1.1/DTD/svg11.dtd"><svg t="1565575439404" class="icon" viewBox="0 0 1024 1024" version="1.1" xmlns="http://www.w3.org/2000/svg" p-id="275793" xmlns:xlink="http://www.w3.org/1999/xlink" width="128" height="128"><defs><style type="text/css"></style></defs><path d="M896 64 128 64c-35.345 0-64 28.654-64 64l0 768c0 35.345 28.654 64 64 64l768 0c35.345 0 64-28.654 64-64L960 128C960 92.655 931.346 64 896 64zM896 864.004C896 881.675 881.679 896 864.004 896L160.996 896C143.325 896 129 881.679 129 864.004L129 160.996C129 143.325 143.321 129 160.996 129l703.009 0C881.675 129 896 143.321 896 160.996L896 864.004zM768.005 405.9 618.503 405.9 618.503 256.993c0-35.332-28.652-63.993-63.995-63.993L257.726 193c-35.341 0-63.995 28.651-63.995 63.993l0 298.114c0 35.332 28.652 63.993 63.995 63.993l149.502 0 0 148.907c0 35.332 28.652 63.993 63.995 63.993l296.782 0C803.346 832 832 803.349 832 768.007L832 469.893C832 434.561 803.348 405.9 768.005 405.9zM290.502 554.432c-17.672 0-31.998-14.334-31.998-32.01L258.504 290.293c0-17.678 14.327-32.01 31.998-32.01l231.23 0c17.672 0 31.998 14.334 31.998 32.01L553.73 405.9l-82.506 0c-35.341 0-63.995 28.651-63.995 63.993l0 84.539L290.502 554.432zM553.729 471.184l0 51.239c0 17.678-14.327 32.01-31.998 32.01l-49.73 0 0-51.239c0-17.678 14.327-32.01 31.998-32.01L553.729 471.184zM767.227 735.322c0 17.678-14.327 32.01-31.998 32.01l-231.23 0c-17.672 0-31.998-14.334-31.998-32.01L472.001 619.1l82.506 0c35.341 0 63.995-28.651 63.995-63.993l0-83.923 116.726 0c17.672 0 31.998 14.334 31.998 32.01L767.226 735.322z" p-id="275794" fill="#bdbdbd"></path></svg>